<svg xmlns="http://www.w3.org/2000/svg" width="NaN" height="NaN"><g class="layer"><g fill-rule="evenodd"><path fill="#109A97" d="m608.059 77.945-15.148.066-.081 23.657c-.032 12.992-.032 34.405 0 47.561l.08 23.923h12.982c9.247 0 13.08-.084 13.29-.301.374-.385 7.01-.217 7.402.186.164.167 6.818.234 17.532.185l17.269-.067V78.032l-17.06-.084c-15.932-.066-17.073-.035-17.465.42-.374.452-.44.452-1.288-.084-.49-.3-1.221-.518-1.63-.486-.407.049-7.568.101-15.884.15m52.381 47.646v46.305h-66.598l-.066-45.756c-.049-25.161-.018-46.039.066-46.389l.147-.637 33.236.084 33.219.067v46.323M9.905 128.52v47.981h72.551l.081-23.772c.031-13.09.031-34.688 0-47.995l-.08-24.21H9.904zM203.28 81.091c-28.018.186-27.92.186-29.124 1.341-1.533 1.473-1.452-.469-1.452 34.37l-.018 32.378.588 1.071c.326.602 1.078 1.372 1.712 1.74l1.123.654 19.016.151 19.03.133.08 5.408c.066 5.827 0 6.177-1.306 6.177-5.69 0-6.93 8.522-1.599 11.081 1.988.955 19.537.987 19.537.049 0-.402.767-.301 1.711.217 2.513 1.355 10.567.252 12.23-1.673 3.048-3.531.749-9.677-3.62-9.677-1.305 0-1.368-.35-1.287-6.178l.066-5.407 4.011-.084c3.654-.067 4.042-.018 4.207.42 1.207 3.349 7.175 8.504 11.497 9.925.669.235 1.712.571 2.3.77 1.368.452 8.512.518 9.425.084.343-.168 1.306-.518 2.135-.787 7.518-2.495 12.866-8.757 14.564-17.143 1.27-6.195-.931-13.527-5.66-18.917l-1.029-1.19v-20.29c0-21.763 0-21.78-1.417-23.135-1.533-1.456-2.086-1.505-22.376-1.505h-18.592l-.311.602c-.424.805-7.175.385-7.893-.486-.164-.217-.44-.35-.619-.319-.165.035-12.278.133-26.94.217m429.863.805c-.311.434-.57.889-.57.987 0 .116-.522 1.04-1.159 2.058-.65 1.022-1.256 2.044-1.368 2.279-.098.234-.49.92-.865 1.54-.374.602-.798 1.372-.93 1.673-.326.787-1.079 1.389-1.355 1.088-.294-.35-1.386-3.181-1.386-3.615 0-.403-.749-.77-1.092-.536-.245.133-.165.536.276 1.659.116.319.553 1.439.98 2.51 1.257 3.265 1.288 3.265 2.706.819a173 173 0 0 1 1.697-2.846c.326-.57.686-1.221.784-1.438.116-.235.963-1.726 1.908-3.35.945-1.606 1.711-3.097 1.711-3.283 0-.637-.766-.385-1.337.452m-354.735 2.278.847.854v19.369c0 21.01.066 20.041-1.467 18.802l-.717-.584v-16.506c0-17.864-.017-18.183-1.435-19.254-1.729-1.323-.864-1.305-48.531-1.305-47.404 0-47.292 0-48.646 1.239-1.453 1.323-1.404.3-1.404 25.329 0 24.308 0 24.042-1.257 23.891l-.784-.101-.08-25.53-.066-25.528.882-.753.882-.77h100.94l.833.854m-199.602.602c.08.35.116 20.272.08 44.296l-.08 43.663h-64.69l-.067-43.947c-.031-24.157-.017-44.096.067-44.282.098-.283 6.818-.35 32.336-.35h32.207zm542.09 5.593c0 4.47.081 6.328.326 6.563.539.553 11.462.469 12.019-.102.49-.5.62-6.898.164-7.651-.539-.854-.815.2-.882 3.35l-.08 3.199h-10.321l-.081-5.222-.067-5.24h3.262c3.084 0 3.262-.035 3.262-.553 0-.535-.178-.553-3.8-.553h-3.802v6.213M274.218 88.75l.668.686v16.005c0 8.806-.066 16.09-.164 16.174-.08.084-1.012-.133-2.086-.501-3.409-1.204-8.302-.97-13.52.602-3.522 1.071-9.069 5.978-11.026 9.727-.164.318-.423.819-.588 1.12-.178.318-.521 1.155-.766 1.893-.62 1.775 2.607 1.624-34.507 1.54l-32.875-.084-.08-23.338-.067-23.355.717-.571.718-.584h92.904l.668.686M20 94.976l.08 1.876h11.417l.081-1.876.08-1.893H19.918zm174.979 1.053c0 1.992-.277 2.496-1.778 3.2l-1.221.57-1.208-.721c-1.858-1.12-2.17-.956-4.028 2.327s-1.842 3.633.164 4.687l1.141.602v1.74c0 1.707-.018 1.756-.945 2.26-2.202 1.19-2.202 1.439 0 5.341 1.435 2.562 1.907 2.797 3.49 1.757 2.232-1.438 4.385-.133 4.385 2.678 0 2.058.227 2.194 3.717 2.194 3.44 0 3.899-.269 3.899-2.345 0-1.557.227-2.026 1.417-2.779.98-.619 1.32-.584 2.755.235 1.515.871 2.887.602 2.887-.536 0-.066.553-1.07 1.222-2.243 1.631-2.828 1.403-3.668-1.288-4.704-1.06-.402-.406-4.102.717-4.102 1.078 0 2.43-2.443 1.6-2.828-.263-.115-1.404-2.124-1.614-2.814-.08-.27-.262-.486-.392-.486s-.245-.169-.245-.386c0-1.288-1.27-1.522-3.164-.57l-1.435.721-1.029-.637c-1.354-.836-1.435-.987-1.435-2.527 0-2.261.116-2.194-3.979-2.194h-3.636v1.557m4.808.57c.522.151.62.403.686 1.74.067 1.456.147 1.606.945 2.027.473.234 1.208.668 1.631.955 1.859 1.257 1.974 1.274 3.311.5l1.24-.703.748.92c.767.939 1.043 2.479.441 2.479-.164 0-.686.3-1.158.668l-.847.668.031 2.594c.05 2.394.098 2.646.686 3.031 1.859 1.257 1.974 1.473 1.435 2.58-.766 1.54-1.19 1.707-2.576.937-1.256-.686-1.925-.584-3.083.47-.276.269-.686.5-.896.5-1.141 0-1.974 1.12-1.974 2.663 0 1.673-.311 1.925-2.201 1.74-.896-.084-.914-.115-1.012-1.473-.08-1.492-.717-2.479-1.778-2.829-.325-.101-.994-.486-1.515-.836-1.141-.788-1.698-.819-3.133-.116-1.221.602-1.368.536-2.268-1.155-.62-1.137-.504-1.34 1.11-2.177.406-.199.749-.518.766-.686.017-.518.032-5.022 0-5.34-.017-.151-.521-.585-1.123-.939-1.24-.703-1.288-1.323-.214-2.863.651-.938.49-.938 2.153-.066l1.354.703.882-.668c.473-.368 1.32-.872 1.876-1.138 1.32-.602 1.841-1.424 1.841-2.828 0-1.557.669-1.893 2.643-1.354m-179.837 7.08v1.96H43.85v-3.902H19.946zm176.722.336c-3.312 1.642-3.9 5.474-1.257 8.187 1.32 1.354 3.801 1.69 5.544.735 5.481-3.031 1.306-11.718-4.287-8.922m412.268.753c-.325.451-.57.889-.57.987 0 .084-.522 1.004-1.173 2.044-.637 1.04-1.256 2.075-1.368 2.31-.099.217-.344.668-.522.97-.196.3-.504.853-.7 1.203-.473.872-.882.487-1.698-1.624-.343-.92-.798-1.673-.98-1.673-.406 0-.472 1.173-.115 1.894.147.27.588 1.323.98 2.359.406 1.04.882 1.893 1.06 1.893.263 0 1.925-2.509 2.317-3.482.067-.168.651-1.138 1.288-2.177.651-1.04 1.19-1.96 1.19-2.044s.295-.602.669-1.173c1.158-1.739.784-3.164-.374-1.49m-408.419 1.672c1.029 1.106 1.06 2.863.08 3.885-1.028 1.04-3.048.988-3.912-.132-2.135-2.73 1.466-6.28 3.832-3.749m413.672-.217a.47.47 0 0 0 .08.553c.473.486 37.72.186 37.72-.301 0-.535-37.474-.787-37.8-.252m-395.976 4.89c-2.282.969-2.657 1.49-2.17 2.912.668 1.96.066 2.663-2.447 2.845l-1.078.067-.374 2.579c-.441 2.979-.326 3.283 1.305 3.567 1.73.3 2.317 1.557 1.355 2.947-.882 1.274-.602 1.893 1.501 3.514 2.268 1.757 2.233 1.739 3.41.5q2.127-2.259 3.373.5c.62 1.324 1.061 1.324 3.686-.017 2.201-1.12 2.233-1.155 1.778-3.549-.228-1.222.406-1.943 1.697-1.876 1.876.084 2.153-.27 2.366-2.88.245-3.049.13-3.364-1.288-3.599-1.939-.318-2.38-1.372-1.27-2.978.311-.434.521-1.022.472-1.288-.213-1.12-5.103-4.203-5.103-3.213 0 1.824-2.789 2.209-3.587.486-.718-1.49-1.159-1.557-3.619-.517m395.993 1.221a.66.66 0 0 0 0 .553c.294.487 37.23.385 37.622-.101.245-.301.213-.42-.13-.553-.766-.301-37.296-.2-37.492.101m-393.662 1.74c.504 1.19 4.567 1.589 5.138.5.36-.703 1.141-.735 1.711-.084.392.452.392.553-.08 1.19-.651.872-.651.872-.031 2.31.293.655.601 1.407.685 1.673.081.27.7.735 1.369 1.022 1.631.721 1.501 2.177-.178 2.027-.833-.084-1.061.035-1.467.686-.262.434-.766 1.137-1.141 1.54-.57.654-.637.938-.49 2.026.294 2.195-1.012 2.377-2.219.284-.472-.805-4.028-.77-4.777.049-1.159 1.274-2.674.234-1.663-1.138.504-.668.522-1.39.032-2.345a16 16 0 0 1-.686-1.522c-.294-.788-.406-.854-1.73-1.155-1.564-.35-.784-2.111.945-2.111.571 0 1.03-.115 1.03-.252 0-.15.423-.836.944-1.54.945-1.274 1.208-2.208.686-2.527-.392-.252-.343-1.19.067-1.354.913-.385 1.484-.151 1.858.72m.326 3.2c-1.81.367-2.95 4.018-1.81 5.81 2.692 4.217 8.985.336 6.587-4.067-.896-1.624-2.478-2.195-4.777-1.74M20.01 119.942l.08 2.026 25.197.067 25.21.066.164-.637c.081-.367.116-1.274.067-2.026l-.08-1.372-25.358-.084-25.357-.067.08 2.027m203.434-.301c1.124 1.088.522 2.845-.994 2.845-1.092 0-1.648-.553-1.648-1.641 0-1.575 1.515-2.279 2.642-1.204m385.427 2.26c-.213.35-.472.82-.588 1.04-.57 1.306-3.881 6.73-4.109 6.762-.164.018-.637-.735-1.06-1.673-1.551-3.332-2.086-2.194-.686 1.407 1.305 3.332 1.403 3.315 3.93-1.004 1.19-2.01 2.317-3.983 2.513-4.368s.539-.89.749-1.138c.504-.57.504-1.659.017-1.659-.213 0-.552.284-.766.637m-337.466 1.288c.343.133 1.19.42 1.858.62 2.562.77 6.409 3.349 7.924 5.34a46 46 0 0 0 1.306 1.66c3.279 3.734 4.714 13.142 2.754 17.948-4.14 10.146-14.007 15.603-23.271 12.873-2.657-.788-3.9-1.39-6.003-2.895-10.843-7.766-11.235-24.391-.766-32.161 1.256-.938 3.783-2.328 4.728-2.629 2.219-.668 2.706-.787 3.815-1.004 1.467-.284 6.752-.116 7.648.252m343.028-.067a.61.61 0 0 0-.343.536c0 .35 2.772.402 18.868.402 18.606 0 20.108-.066 18.883-.871-.392-.252-36.806-.319-37.408-.067m-594.423 5.743.08 2.027 25.197.084 25.21.066.165-.654c.08-.35.115-1.257.066-2.027l-.08-1.372-25.358-.066-25.357-.067.08 2.01m243.324-.319c-.116.168-.263 1.106-.326 2.093-.227 2.779-1.809 3.734-4.091 2.495-.7-.385-1.484-.703-1.729-.703-.392 0-2.656 3.23-2.674 3.832-.017.116-.245.518-.539.903-.798 1.04-.178 2.744 1.012 2.814 1.729.067 1.939 4.722.227 4.722-.455 0-1.795 1.19-1.795 1.606 0 .721 3.048 5.908 3.587 6.076.276.102 1.11-.185 1.925-.637l1.417-.805 1.306.805c1.158.735 1.288.921 1.288 1.876 0 .585.067 1.456.165 1.925l.178.872h3.472c4.011 0 4.06-.018 4.06-2.46 0-1.355.032-1.408 1.288-2.209l1.27-.805 1.565.854c1.795.987 2.121.836 3.409-1.505.392-.704.98-1.726 1.337-2.293.945-1.54.312-3.297-1.19-3.297-1.746 0-1.386-4.672.36-4.721.392-.017 1.467-1.221 1.467-1.624 0-.185-.539-1.288-1.221-2.46-.669-1.155-1.222-2.177-1.222-2.244 0-1.204-1.858-1.407-3.28-.367-1.564 1.154-3.783-.169-3.783-2.244 0-2.695-.13-2.797-3.962-2.797-2.152 0-3.409.116-3.521.301m350.934.721a.7.7 0 0 0-.178.42c0 .133 8.561.235 19.03.235 17.366 0 20.04-.102 18.591-.669-.588-.234-37.212-.217-37.443.018m-346.059 1.372c.326.133.441.57.441 1.606 0 1.691.098 1.876 1.355 2.496.521.252 1.32.721 1.76 1.022 1.078.752 1.827.721 3.115-.116l1.043-.668.686 1.053c1.03 1.575.994 1.81-.343 2.863l-1.221.938v5.292l.847.553c.455.319 1.06.704 1.337.872.504.301.164 1.288-.931 2.677-.392.487-.406.487-2.153-.434-.864-.469-.882-.469-2.691.655-1.012.62-1.974 1.12-2.153 1.12-.455 0-.65.669-.65 2.278v1.39l-1.698-.084-1.712-.084-.066-1.12c-.116-1.69-.312-2.376-.7-2.376-.196 0-1.173-.501-2.184-1.12-1.663-1.04-1.89-1.106-2.429-.77-1.778 1.137-2.037 1.137-2.79-.085-1.078-1.757-1.078-1.84.116-2.46 1.452-.77 1.466-.805 1.435-3.748-.049-2.73-.116-2.881-1.908-4.085l-.637-.434.784-1.323c.882-1.505.865-1.491 2.268-.752 1.337.703 1.841.703 2.853-.018a19 19 0 0 1 1.778-1.022c1.221-.602 1.337-.805 1.354-2.327 0-1.775 1.257-2.496 3.098-1.775m-248.199 7.164.08 2.027h45.385l.08-2.027.081-2.026h-45.71l.08 2.027m245.312-.169c-2.331.42-4.092 4.505-2.937 6.815 2.43 4.837 9.247 3.448 9.247-1.893 0-3.567-2.576-5.576-6.31-4.921m-19.894 4.287c.031 1.908.196 4.12.374 4.872.165.77.392 1.876.455 2.443l.147 1.053h-70.09l-.718-.735-.717-.735v-5.089c0-2.779.08-5.155.178-5.257s15.963-.15 35.256-.115l35.077.066.031 3.5m362.89-2.075c-.49.854-1.011 1.757-1.158 2.026-2.607 4.603-3.132 5.173-3.668 4.018-1.012-2.194-1.221-2.579-1.55-2.695-.588-.234-.406.938.539 3.381 1.109 2.93 1.386 2.965 2.919.487.668-1.089 1.368-2.226 1.564-2.51.178-.3.423-.72.521-.955.098-.217.718-1.274 1.355-2.345.651-1.089 1.172-2.195 1.172-2.46 0-.988-.833-.47-1.697 1.053m-339.504.721c1.257 1.19.686 3.717-.994 4.42-1.711.735-3.52-.619-3.52-2.646 0-2.376 2.771-3.465 4.518-1.774m-88.256.788c-1.698 1.624-1.76 4.133-.147 5.827 3.115 3.283 8.137.336 6.979-4.102-.767-2.947-4.55-3.899-6.832-1.726m433.534-.889c0 .854.7.89 19.03.89 18.312 0 19.015-.036 19.015-.89 0-.115-8.56-.217-19.015-.217-10.469 0-19.03.102-19.03.217m-429.31 2.328c1.698 1.354-.147 4.438-2.072 3.433-1.515-.819-1.648-2.929-.213-3.668.945-.5 1.435-.451 2.282.235m429.31 3.734c0 .368 2.268.42 19.047.42 15.116 0 19.03-.084 18.931-.35-.178-.584-37.978-.654-37.978-.066m-376.425 11.97c0 4.921-.067 5.708-.441 5.859-.228.084-4.809.168-10.16.168-5.366 0-9.93-.084-10.175-.168-.441-.186-.686-10.93-.245-11.368.098-.102 4.858-.186 10.601-.186h10.42v5.691m-173.415-3.097c0 2.894-.066 2.978-2.901 2.978h-2.25v3.885l2.512.084 2.513.084.081 2.443.08 2.43h3.752l.081-2.43.08-2.443 2.527-.084 2.527-.084-.08-1.876-.08-1.876-2.17-.084c-2.804-.101-2.853-.168-2.853-3.013v-2.345h-3.815v2.327m544.701.434c-.325.452-.57.89-.57.97 0 .084-.847 1.54-1.908 3.248-1.043 1.708-1.89 3.213-1.89 3.363 0 .133-.178.27-.374.27-.343 0-1.81-2.73-1.81-3.364 0-.15-.178-.269-.406-.269-.455 0-.553 1.106-.164 1.893.13.27.36.788.504 1.173.931 2.394 1.27 3.08 1.533 3.08.276-.018 1.988-2.646 3.195-4.89.245-.469 1.012-1.774 1.698-2.912 1.582-2.628 1.746-4.788.196-2.562m5.432 1.407c-.326.217-.326.336-.032.704.312.385 2.317.434 18.592.434 18.785-.018 19.831-.084 18.869-1.071-.392-.403-36.806-.469-37.426-.067m-.178 6.178a.49.49 0 0 0 .08.57c.473.487 37.72.186 37.72-.3 0-.536-37.475-.806-37.8-.27m-371.99 3.749c2.544 1.305 2.299 5.256-.393 6.429-1.435.602-28.08.602-29.515 0-2.657-1.137-3.049-4.805-.686-6.279 1.221-.77 29.123-.889 30.593-.15"/><path d="M229.043 21.577c-2.478 3.182-2.642 3.5-2.023 4.085.718.668.994.57 2.023-.669.504-.602 1.012-1.022 1.11-.92.262.27.196 16.037-.08 22.683-.148 3.147-.277 12.037-.312 19.772l-.067 14.028.651.402c.98.571 1.043.585 3.182.921 3.147.5 4.876.42 5.219-.235.405-.77-.473-1.624-1.89-1.858-1.141-.186-1.418-.553-.62-.854.263-.102.539-.252.62-.35.147-.168 1.239-.805 3.017-1.757.65-.336 1.256-.686 1.319-.77.179-.168.798-.518 3.734-2.125 1.306-.703 3-1.641 3.753-2.058 1.123-.636 4.028-2.208 7.469-4.052 1.19-.655 13.387-6.731 14.955-7.466.816-.385 2.937-1.407 4.715-2.261 1.76-.854 3.262-1.557 3.325-1.557.066 0 .7-.27 1.403-.585 1.288-.584 1.533-.703 3.325-1.456.522-.217 1.662-.735 2.527-1.137s1.613-.735 1.697-.735c.067 0 .718-.252 1.418-.585 1.484-.668 1.697-.752 4.274-1.792 2.201-.871 2.887-1.137 3.752-1.491.325-.15 1.466-.602 2.513-1.022 1.042-.42 2.134-.854 2.446-.97.294-.132 1.453-.57 2.576-.969 1.124-.402 2.282-.854 2.576-.987.945-.402 3.668-1.354 8.022-2.814a357 357 0 0 0 4.764-1.641c.294-.102 1.582-.536 2.852-.956s2.545-.871 2.853-1.004c.294-.116.847-.301 1.221-.368.735-.15 1.747-.434 4.078-1.155 3.097-.938 3.409-1.022 4.077-1.155a8 8 0 0 0 1.222-.385c.57-.27 3.132-.955 8.155-2.194.588-.151 1.876-.487 2.852-.753 2.317-.62 3.668-.938 5.152-1.239 2.397-.486 3.703-.77 5.708-1.256 1.124-.27 2.594-.602 3.263-.721.686-.133 1.84-.35 2.593-.501.749-.15 2.219-.402 3.262-.57s2.072-.368 2.3-.47c.227-.066 1.256-.269 2.317-.433 1.043-.151 2.513-.385 3.262-.518 8.953-1.54 20.09-2.863 30.446-3.598 2.38-.186 5.87-.452 7.746-.602 4.403-.368 30.38-.368 34.783 0 1.876.15 5.348.434 7.745.602 10.892.787 22.309 2.124 30.447 3.584.749.133 2.152.385 3.115.553.98.168 2.754.5 3.948.735 1.19.234 2.901.553 3.8.686 2.626.434 4.225.787 9.248 1.991.602.15 1.63.385 2.317.536 1.466.318 2.789.619 5.299 1.239 1.043.252 2.38.57 2.985.703 1.89.42 3.213.77 4.764 1.239 2.74.837 3.391 1.022 4.336 1.274 1.159.284 2.38.637 4.354 1.257.816.269 1.89.535 2.38.619.49.067.945.252 1.043.385.067.133.392.252.686.252.473 0 18.508 6.027 19.943 6.682.294.115.98.385 1.502.584 1.256.452 2.74 1.089 3.325 1.407.262.133.65.252.882.252.227 0 .619.116.882.252.262.15 1.337.602 2.38 1.022 1.043.403 2.152.854 2.446.97s1.159.451 1.908.72c.749.253 1.466.585 1.613.704.147.133.424.235.62.235.178 0 .896.251 1.564.57 2.006.903 3.752 1.708 4.617 2.076.455.199 1.533.685 2.397 1.088s1.631.735 1.698.735.686.252 1.354.553a529 529 0 0 0 6.244 2.814c2.643 1.138 18.998 9.307 22.421 11.2.98.536 2.87 1.575 4.207 2.31 1.355.735 3.374 1.841 4.484 2.46 1.123.62 2.527 1.39 3.132 1.708.602.319 1.453.854 1.908 1.173 1.858 1.34 2.005 1.354 2.464.217.49-1.204.57-1.106-2.202-2.629-1.19-.654-2.282-1.274-2.446-1.389-.147-.116-1.435-.837-2.853-1.607a899 899 0 0 1-8.414-4.602 550 550 0 0 0-2.723-1.491c-1.417-.77-18.445-9.156-19.439-9.594-.294-.115-1.141-.5-1.89-.836-1.858-.837-3.164-1.407-3.815-1.673-.294-.133-1.141-.5-1.89-.837s-1.729-.787-2.184-.969c-.441-.2-1.515-.686-2.38-1.089s-1.631-.735-1.697-.735c-.081 0-.651-.234-1.288-.518a38 38 0 0 0-2.104-.889 48 48 0 0 1-1.907-.752c-1.68-.721-1.988-.837-4.746-1.876a296 296 0 0 1-3.262-1.257 205 205 0 0 0-2.447-.987c-1.06-.42-2.152-.871-2.446-.987-.312-.133-1.533-.57-2.723-.969-1.19-.403-2.38-.854-2.643-.987-.262-.15-.717-.27-1.011-.27s-.602-.101-.669-.234c-.08-.133-.49-.319-.913-.385-.798-.15-3.98-1.239-4.746-1.642-.263-.133-.669-.252-.896-.252s-.62-.101-.882-.234c-.718-.368-3.913-1.491-4.68-1.624a6 6 0 0 1-1.221-.368 8.3 8.3 0 0 0-1.222-.385c-.374-.066-1.841-.469-3.262-.871-1.417-.42-2.95-.854-3.409-.97-.441-.133-1.55-.451-2.446-.703-.896-.27-1.988-.585-2.447-.721-.441-.116-1.305-.368-1.89-.536a50 50 0 0 0-2.037-.553c-.521-.115-1.876-.469-3-.77a77 77 0 0 0-3.667-.889c-1.761-.367-2.888-.654-4.666-1.12a77 77 0 0 0-2.446-.602c-.718-.15-1.859-.402-2.527-.553a77 77 0 0 0-2.594-.518c-.735-.15-2.397-.451-3.668-.703a312 312 0 0 0-10.192-1.81c-2.513-.42-9.033-1.288-14.675-1.96-1.19-.15-2.723-.336-3.392-.42-4.501-.535-13.664-1.305-20.923-1.739-5.348-.319-29.746-.235-35.745.133-7.728.469-12.394.819-13.472 1.022-.521.084-2.282.301-3.93.469s-3.85.402-4.893.535-2.937.35-4.207.518c-5.691.686-8.432 1.12-11.074 1.726-.651.133-1.467.252-1.841.252-.361 0-1.19.115-1.827.27-.637.15-2.317.468-3.735.72s-3.083.553-3.668.686c-.602.133-1.827.385-2.723.571s-2.429.5-3.391.735c-.98.217-2.38.535-3.133.686-1.288.283-2.25.518-4.483 1.106-3.948 1.022-5.723 1.456-6.654 1.673-1.876.385-4.991 1.221-7.486 1.96-.522.168-1.369.402-1.89.535-1.159.284-2.38.637-4.354 1.257-.816.27-1.89.535-2.38.62-.49.066-.945.251-1.03.384-.097.133-.391.252-.685.252s-.75.116-1.012.27c-.262.133-1.564.584-2.919 1.005-1.337.402-2.691.836-2.985.955-.294.133-2.006.735-3.801 1.355-4.452 1.522-8.057 2.813-8.708 3.114a24 24 0 0 1-1.761.655c-.668.217-1.582.553-2.037.735-.455.2-1.06.451-1.354.57-.914.35-4.323 1.709-4.956 1.975-.865.35-1.551.619-3.752 1.49-2.706 1.089-2.821 1.138-4.55 1.943-.865.385-1.631.721-1.712.721-.115 0-1.078.42-4.14 1.841-.784.368-1.484.669-1.551.669-.147 0-3.048 1.34-8.431 3.916-.896.42-2.233 1.053-2.986 1.39-1.795.818-14.661 7.398-17.255 8.84-1.123.62-3.262 1.775-4.763 2.594a281 281 0 0 0-6.587 3.668c-.49.284-1.288.753-1.761 1.04-4.452 2.579-4.665 2.61-3.881.686.553-1.355.504-1.96-.165-2.328s-1.6.301-1.6 1.155c0 .27-.178.602-.374.721-.196.116-.423.42-.504.637-.213.62.018-21.612.36-37.667.361-15.802.277-15.183 1.565-13.244.718 1.071 1.533 1.257 2.086.487.392-.536.214-1.04-.864-2.443-.361-.47-.735-.956-.847-1.12-2.692-3.749-2.594-3.749-5.152-.487m95.872 64.855c-4.078 1.138-6.164 2.31-8.593 4.855-3.832 3.983-4.207 5.491-4.47 17.829-.213 10.076-.244 10.346-1.466 12.69-.686 1.341-3.146 3.7-4.55 4.386-2.544 1.222-2.919 1.274-10.076 1.407l-6.997.133v2.177h7.452c4.679 0 7.535.102 7.633.284.098.15.473.269.833.269s.669.102.669.217.343.368.749.553c1.337.602 3.717 3.031 4.385 4.438.343.753.749 1.589.896 1.894.165.3.375 4.203.49 8.788.277 10.479.865 12.54 4.778 16.59 1.68 1.757 4.956 3.801 6.083 3.801.245 0 .588.15.784.35.455.469 226.933.654 229.365.2 2.755-.536 3.049-.603 3.049-.872 0-.133.129-.235.294-.235 1.599 0 5.855-4.203 7.647-7.532 1.418-2.677 1.582-3.916 1.827-13.81.165-6.612.326-9.192.602-9.913 2.38-6.044 6.15-8.085 14.92-8.085 6.035 0 6.164.035 4.859 1.222-1.012.938-1.043 2.208-.032 2.345.539.084 2.643-1.222 3.815-2.377.196-.199.441-.35.539-.35.36-.017 1.957-1.708 1.957-2.093 0-.469-1.173-1.823-1.565-1.823-.147 0-.441-.2-.651-.452-.896-1.106-3.85-2.863-4.354-2.593-.882.486-.651 1.792.455 2.495 1.55.987.945 1.12-5.397 1.12-9.327 0-12.509-1.84-15.281-8.788-.343-.889-.49-2.779-.668-8.939-.147-4.722-.361-8.187-.553-8.789-.455-1.354-1.68-3.983-2.023-4.336-.147-.168-.7-.872-1.222-1.575-1.778-2.394-4.483-4.134-8.057-5.222l-1.925-.585-112.637.035c-70.563.018-112.976.133-113.564.301m227.993 2.345c2.202.669 5.334 2.744 6.458 4.288.178.234.588.752.913 1.137.637.753 1.386 2.328 1.841 3.9.7 2.376.882 4.336.882 10.128 0 6.748.067 7.133 1.698 10.514.962 1.96 3.636 4.921 5.138 5.677 2.268 1.155 2.268 1.19.017 2.78-2.74 1.924-4.501 4.217-5.512 7.181-.588 1.691-.637 2.412-.798 10.731-.098 4.921-.312 9.391-.473 9.944-1.158 4.252-4.826 8.137-9.18 9.761-2.202.82-6.164.837-116.6.735-61.284-.049-111.852-.199-112.374-.318-3.374-.735-6.898-3.315-8.837-6.447-1.778-2.895-2.006-4.204-2.153-12.691-.13-7.767-.262-8.705-1.515-11.302-.784-1.589-3.521-4.588-4.827-5.274-.98-.518-1.141-1.204-.36-1.505.98-.385 3.048-2.394 4.207-4.085 2.299-3.349 2.366-3.766 2.513-14.399.115-9.761.213-10.545 1.55-13.66 1.208-2.828 4.697-5.677 8.495-6.965 2.25-.753 226.446-.889 228.924-.133m-324.338 8.673c-.213.602.49 1.34 1.06 1.12.228-.102.424-.487.424-.872 0-.854-1.172-1.039-1.484-.252m-7.304.284c-.098.101-.179 2.177-.179 4.602v4.421h1.631v-1.81c0-2.026-.017-2.026 2.447-2.177 2.037-.115 1.648-.871-.54-1.039l-1.777-.15v-2.78l1.974-.083c1.746-.085 1.974-.151 1.974-.638 0-.552-5.023-.871-5.527-.35m12.46 2.244c-2.086.518-1.876 3.7.245 3.7.882 0 1.796.654 1.796 1.287 0 .837-.882 1.107-2.22.655-1.158-.385-1.581-.2-1.14.5.668 1.107 3.556 1.107 4.305 0 .994-1.473.325-2.796-1.663-3.314-2.3-.584-2.054-2.026.326-1.858 1.613.101 1.925-.452.472-.872-1.092-.318-1.239-.318-2.121-.101m7.046.083c-3.017.939-2.527 6.245.637 6.864 1.564.301 3.979-1.505 2.674-2.009-.214-.084-.686.102-1.012.42-1.746 1.673-3.98-1.438-2.527-3.549.473-.703 1.939-.836 2.839-.27.455.284.602.284.815-.066.588-.987-1.697-1.907-3.423-1.39m6.769.018c-1.011.301-1.288.655-1.06 1.274.115.319.262.35.504.168.57-.486 2.037-.686 2.625-.35.913.5.262 1.288-1.533 1.824-2.317.686-2.92 1.974-1.582 3.349.798.837 1.729.889 2.642.15.602-.486.749-.5 1.208-.15.637.5 2.005.536 2.005.067 0-.2-.245-.518-.553-.704-.455-.301-.539-.654-.539-2.544 0-2.93-1.141-3.885-3.717-3.08m-18.833 3.332v3.349h1.354v-6.699h-1.354zm21.413.602c.178.92-.767 1.942-1.68 1.84-1.257-.115-1.288-1.924-.032-2.208 1.173-.252 1.614-.168 1.712.368m-84.767 20.373c-.294.536-.196.721.865 1.673.98.889 1.123 1.12.784 1.34-.245.169-16.275.27-42.203.27l-41.811.018.098 1.039.08 1.053 41.713.067c22.946.035 41.895.133 42.091.2.263.101 0 .486-.784 1.204-1.043.955-1.123 1.12-.847 1.673.522.969 1.078.752 4.19-1.624 3.262-2.51 3.325-2.664 1.89-3.85-4.403-3.651-5.481-4.186-6.066-3.063m453.737 48.615c-.406 1.089.08 1.54 2.152 1.96.406.102.735.27.735.42 0 .133-.325.42-.735.637-.423.217-2.464 1.505-4.567 2.846-8.267 5.34-8.512 5.491-13.178 8-.668.368-1.288.722-1.354.806-.165.168-.669.451-3.311 1.907-1.092.602-2.79 1.558-3.766 2.125-2.853 1.641-21.739 11.08-23.776 11.886-.294.115-1.029.42-1.631.668-.602.252-1.337.57-1.631.686-1.029.42-1.907.805-3.132 1.355-.669.3-2.625 1.137-4.337 1.858a210 210 0 0 0-3.948 1.69c-.798.368-4.238 1.642-7.206 2.647-.816.283-3.262 1.172-5.432 1.96-5.905 2.142-7.34 2.61-11.547 3.783-.896.252-1.841.57-2.103.721-.263.133-.669.235-.896.235s-1.435.318-2.657.72c-1.221.386-2.723.837-3.311 1.005-.602.168-1.403.403-1.778.518-.913.319-5.446 1.425-9.1 2.226-.602.133-1.582.368-2.17.518-.602.133-2.005.469-3.132.735-1.124.27-2.527.602-3.133.735-1.27.319-2.919.655-5.152 1.022-.896.168-2.495.434-3.538.602a59 59 0 0 0-2.888.585c-.539.15-1.305.269-1.697.269s-1.222.116-1.876.27c-3.85.889-13.094 2.093-21.494 2.796-1.925.15-3.605.35-3.734.434-1.043.669-33.513 1.239-40.754.721-2.317-.168-6.965-.5-10.322-.735-3.36-.234-6.604-.5-7.206-.57-.588-.084-2.366-.27-3.931-.42-4.581-.42-7.273-.735-10.601-1.24-1.73-.269-3.997-.584-5.04-.72-3.864-.501-8.53-1.24-9.279-1.491-.276-.084-1.354-.301-2.397-.47-5.66-.92-7.438-1.256-9.653-1.791-.98-.235-2.447-.571-3.262-.721-.816-.168-1.988-.42-2.576-.553-.602-.133-1.698-.35-2.447-.501-1.417-.283-5.561-1.256-7.206-1.708-1.24-.336-7.487-1.942-8.691-2.243-.521-.116-1.697-.434-2.593-.686-.896-.27-2.023-.602-2.513-.735a539 539 0 0 1-3.735-1.071c-2.464-.721-4.256-1.222-5.708-1.59-.896-.234-1.876-.517-2.17-.636a80 80 0 0 0-3-.987c-1.337-.42-2.691-.854-2.985-.97s-2.006-.703-3.801-1.288-3.458-1.155-3.668-1.256c-.896-.42-3.997-1.457-4.697-1.576-.406-.083-.816-.251-.896-.384s-.392-.252-.686-.252-.735-.116-.994-.27c-.263-.133-1.404-.584-2.513-.987l-2.594-.97c-.294-.132-1.452-.57-2.576-.986a105 105 0 0 1-2.576-.956 205 205 0 0 0-2.446-.987c-1.043-.42-2.153-.854-2.447-.987-.311-.115-1.288-.5-2.184-.836-.896-.35-2.054-.82-2.576-1.04a58 58 0 0 0-3.181-1.288 51 51 0 0 1-2.447-1.04c-.717-.318-1.55-.685-1.841-.818-.311-.116-1.141-.487-1.858-.82-.718-.318-2.184-.955-3.262-1.389s-2.657-1.12-3.507-1.522a489 489 0 0 0-5.513-2.527c-.455-.2-1.55-.704-2.446-1.12-.896-.42-2.184-1.022-2.853-1.323a355 355 0 0 1-4.483-2.177 521 521 0 0 0-5.17-2.51c-3.472-1.624-11.938-6.044-13.013-6.797-1.417-.987-2.219-1.172-2.723-.637-.227.217-.553.469-.735.518-.374.133-.36 24.157.032 33.985.423 10.58.36 22.887-.13 22.887-.227 0-.406-.102-.406-.217 0-.386-1.386-1.74-1.76-1.74-1.159 0-1.337 1.204-.361 2.278.196.2.718.872 1.159 1.492 2.705 3.717 2.87 3.8 4.273 2.026 2.349-2.978 3.44-4.823 3.182-5.306-.455-.819-1.467-.584-2.184.486-1.288 1.943-1.208 2.528-1.565-12.974-.553-25.011-.602-40.733-.147-40.733.228 0 3.864 1.74 8.071 3.868 4.225 2.142 8.659 4.354 9.849 4.92 7.567 3.633 7.452 3.584 9.996 4.722.473.217 1.582.721 2.447 1.12.847.385 2.25 1.04 3.115 1.439.864.385 1.988.903 2.513 1.137a47 47 0 0 1 1.435.669c.262.15.588.251.735.251s.913.301 1.697.669c3.066 1.425 4.029 1.841 4.14 1.841.081 0 .785.301 1.565.669.798.367 2.17.955 3.066 1.305.896.336 2.072.805 2.594 1.04 1.417.601 1.876.787 3.668 1.473.896.336 1.988.788 2.446.987.441.185 1.355.535 2.037.77.669.217 1.582.553 2.037.735a43 43 0 0 0 2.853 1.12c.521.186 1.19.434 1.484.553a82 82 0 0 0 2.446.938c1.043.368 3.017 1.088 4.354 1.589 1.337.486 2.79.955 3.196 1.022.406.084.815.252.896.385s.423.252.766.252c.326 0 .718.102.865.217.129.115 1.354.584 2.705 1.022 1.337.434 2.692.889 2.986 1.005s2.005.668 3.8 1.256c1.796.57 3.459 1.106 3.669 1.19.717.252 5.005 1.473 5.708 1.624.375.084.931.252 1.222.385a6.6 6.6 0 0 0 1.221.367c1.06.217 4.974 1.323 5.576 1.59.294.132.847.283 1.221.367.651.115 6.409 1.589 8.432 2.142 1.484.402 5.722 1.438 6.93 1.69.588.133 1.76.368 2.576.553.815.168 1.988.42 2.576.536a96 96 0 0 1 3.132.703c2.268.536 3.752.837 5.985 1.24.816.132 2.527.451 3.801.703 1.27.252 3.098.584 4.078.735.98.168 2.446.402 3.262.553.815.133 2.282.367 3.262.518.98.133 3.115.469 4.763.721 4.876.735 7.826 1.088 15.215 1.792 1.795.168 3.57.385 3.948.469.65.168 2.625.283 15.214.987 8.057.434 26.369.451 33.709.017 7.157-.42 13.664-1.022 21.868-2.044 1.207-.15 3.164-.385 4.354-.518 1.19-.15 3.213-.469 4.483-.703 1.27-.252 3.098-.585 4.078-.735.98-.168 2.38-.403 3.132-.518.749-.133 2.153-.368 3.115-.518.98-.168 2.755-.487 3.948-.721 1.19-.252 2.545-.5 2.986-.602.455-.067 1.256-.27 1.778-.403s1.795-.451 2.852-.686c2.429-.57 4.109-.955 5.299-1.256.522-.133 1.68-.403 2.576-.585 2.527-.535 5.87-1.438 10.731-2.894.833-.235 1.908-.518 2.398-.62.49-.084.945-.269 1.029-.402.08-.133.44-.252.798-.252.36 0 .93-.102 1.27-.252a33 33 0 0 1 2.25-.721c2.937-.854 3.539-1.04 4.012-1.288.262-.133.717-.252.994-.252.294 0 .602-.102.686-.235.08-.133.423-.318.766-.402.343-.067 2.38-.788 4.55-1.589 2.17-.805 4.225-1.523 4.568-1.589.325-.084.686-.27.766-.403s.375-.234.669-.234.749-.116 1.011-.252c.263-.15 1.078-.469 1.827-.735.749-.252 1.6-.553 1.908-.686.294-.116 1.386-.57 2.446-.987a158 158 0 0 0 3.115-1.323 72 72 0 0 1 1.841-.788 325 325 0 0 0 4.764-2.044c.472-.217 1.974-.871 3.325-1.424 2.562-1.089 4.158-1.841 10.192-4.806 6.31-3.115 11.186-5.624 13.713-7.066a191 191 0 0 1 3.409-1.859c.521-.252 1.011-.535 1.078-.637.164-.168.717-.5 3.066-1.774 3.034-1.659 5.48-3.063 6.506-3.717.57-.368 1.078-.655 1.141-.655.067 0 1.859-1.12 3.962-2.509 2.121-1.39 3.899-2.51 3.962-2.51.067 0 1.173-.703 2.464-1.557 2.366-1.558 3.423-1.726 2.625-.42-1.19 1.96-.245 3.916 1.141 2.359.375-.403.686-1.022.686-1.34 0-.337.098-.722.228-.872.588-.704 1.515-4.337 1.239-4.806-.571-.903-7.567-1.354-7.893-.5"/></g><text x="133.12" y="561.75" stroke-width="0" font-family="Serif" font-size="36" font-weight="bold" text-anchor="middle" transform="scale(.35)">Physicial note</text><text x="120.12" y="611.75" stroke-width="0" font-family="Serif" font-size="36" font-weight="bold" text-anchor="middle" transform="scale(.35)">from EHR</text><text x="662.12" y="711.75" stroke-width="0" font-family="Serif" font-size="36" font-weight="bold" text-anchor="middle" transform="scale(.35)">Insights</text><text x="667.12" y="31.75" stroke-width="0" font-family="Serif" font-size="36" font-weight="bold" text-anchor="middle" transform="scale(.35)">Reports</text><text x="1237.12" y="117.75" stroke-width="0" font-family="Serif" font-size="36" font-weight="bold" text-anchor="middle" transform="scale(.35)">Claim queries</text><text x="1245.12" y="618.75" stroke-width="0" font-family="Serif" font-size="36" font-weight="bold" text-anchor="middle" transform="scale(.35)">Re-Claim submittions</text><text x="1248.12" y="280.75" stroke-width="0" font-family="Serif" font-size="36" font-weight="bold" style="cursor:move" text-anchor="middle" transform="scale(.35)">Automated
      billing</text><text x="1240.12" y="445.75" stroke-width="0" font-family="Serif" font-size="36" font-weight="bold" text-anchor="middle" transform="scale(.35)">Assisted Billing</text><text x="1792.12" y="590.75" stroke-width="0" font-family="Serif" font-size="36" font-weight="bold" letter-spacing="0" text-anchor="middle" transform="scale(.35)">Submited
      for</text><text x="1788.12" y="647.75" stroke-width="0" font-family="Serif" font-size="36" font-weight="bold" text-anchor="middle" transform="scale(.35)">Claim processing</text></g></svg>