<?xml version="1.0"?>
<svg width="NaN" height="NaN" xmlns="http://www.w3.org/2000/svg" xmlns:svg="http://www.w3.org/2000/svg" version="1.1">
  <g class="layer" transform="scale(0.35)">
    <title>Layer 1</title>
    <g id="svgg" transform="matrix(1 0 0 1 0 0)">
      <path
        d="m1737.31,222.7l-43.28,0.19l-0.23,67.59c-0.09,37.12 -0.09,98.3 0,135.89l0.23,68.35l37.09,0c26.42,0 37.37,-0.24 37.97,-0.86c1.07,-1.1 20.03,-0.62 21.15,0.53c0.47,0.48 19.48,0.67 50.09,0.53l49.34,-0.19l0,-135.89l0,-135.89l-48.74,-0.24c-45.52,-0.19 -48.78,-0.1 -49.9,1.2c-1.07,1.29 -1.26,1.29 -3.68,-0.24c-1.4,-0.86 -3.49,-1.48 -4.66,-1.39c-1.16,0.14 -21.62,0.29 -45.38,0.43m149.66,136.13l0,132.3l-95.14,0l-95.14,0l-0.19,-130.73c-0.14,-71.89 -0.05,-131.54 0.19,-132.54l0.42,-1.82l94.96,0.24l94.91,0.19l0,132.35m-1858.68,8.37l0,137.09l103.67,0l103.62,0l0.23,-67.92c0.09,-37.4 0.09,-99.11 0,-137.13l-0.23,-69.17l-103.67,0l-103.62,0l0,137.13m552.5,-135.51c-80.05,0.53 -79.77,0.53 -83.21,3.83c-4.38,4.21 -4.15,-1.34 -4.15,98.2l-0.05,92.51l1.68,3.06c0.93,1.72 3.08,3.92 4.89,4.97l3.21,1.87l54.33,0.43l54.37,0.38l0.23,15.45c0.19,16.65 0,17.65 -3.73,17.65c-16.26,0 -19.8,24.35 -4.57,31.66c5.68,2.73 55.82,2.82 55.82,0.14c0,-1.15 2.19,-0.86 4.89,0.62c7.18,3.87 30.19,0.72 34.94,-4.78c8.71,-10.09 2.14,-27.65 -10.34,-27.65c-3.73,0 -3.91,-1 -3.68,-17.65l0.19,-15.45l11.46,-0.24c10.44,-0.19 11.55,-0.05 12.02,1.2c3.45,9.57 20.5,24.3 32.85,28.36c1.91,0.67 4.89,1.63 6.57,2.2c3.91,1.29 24.32,1.48 26.93,0.24c0.98,-0.48 3.73,-1.48 6.1,-2.25c21.48,-7.13 36.76,-25.02 41.61,-48.98c3.63,-17.7 -2.66,-38.65 -16.17,-54.05l-2.94,-3.4l0,-57.97c0,-62.18 0,-62.23 -4.05,-66.1c-4.38,-4.16 -5.96,-4.3 -63.93,-4.3l-53.12,0l-0.89,1.72c-1.21,2.3 -20.5,1.1 -22.55,-1.39c-0.47,-0.62 -1.26,-1 -1.77,-0.91c-0.47,0.1 -35.08,0.38 -76.97,0.62m1228.18,2.3c-0.89,1.24 -1.63,2.54 -1.63,2.82c0,0.33 -1.49,2.97 -3.31,5.88c-1.86,2.92 -3.59,5.84 -3.91,6.51c-0.28,0.67 -1.4,2.63 -2.47,4.4c-1.07,1.72 -2.28,3.92 -2.66,4.78c-0.93,2.25 -3.08,3.97 -3.87,3.11c-0.84,-1 -3.96,-9.09 -3.96,-10.33c0,-1.15 -2.14,-2.2 -3.12,-1.53c-0.7,0.38 -0.47,1.53 0.79,4.74c0.33,0.91 1.58,4.11 2.8,7.17c3.59,9.33 3.68,9.33 7.73,2.34c1.68,-2.87 3.87,-6.55 4.85,-8.13c0.93,-1.63 1.96,-3.49 2.24,-4.11c0.33,-0.67 2.75,-4.93 5.45,-9.57c2.7,-4.59 4.89,-8.85 4.89,-9.38c0,-1.82 -2.19,-1.1 -3.82,1.29m-1013.53,6.51l2.42,2.44l0,55.34c0,60.03 0.19,57.26 -4.19,53.72l-2.05,-1.67l0,-47.16c0,-51.04 -0.05,-51.95 -4.1,-55.01c-4.94,-3.78 -2.47,-3.73 -138.66,-3.73c-135.44,0 -135.12,0 -138.99,3.54c-4.15,3.78 -4.01,0.86 -4.01,72.37c0,69.45 0,68.69 -3.59,68.26l-2.24,-0.29l-0.23,-72.94l-0.19,-72.94l2.52,-2.15l2.52,-2.2l144.2,0l144.2,0l2.38,2.44m-570.29,1.72c0.23,1 0.33,57.92 0.23,126.56l-0.23,124.75l-92.39,0l-92.44,0l-0.19,-125.56c-0.09,-69.02 -0.05,-125.99 0.19,-126.52c0.28,-0.81 19.48,-1 92.39,-1l92.02,0l0.42,1.77m1548.83,15.98c0,12.77 0.23,18.08 0.93,18.75c1.54,1.58 32.75,1.34 34.34,-0.29c1.4,-1.43 1.77,-19.71 0.47,-21.86c-1.54,-2.44 -2.33,0.57 -2.52,9.57l-0.23,9.14l-14.77,0l-14.72,0l-0.23,-14.92l-0.19,-14.97l9.32,0c8.81,0 9.32,-0.1 9.32,-1.58c0,-1.53 -0.51,-1.58 -10.86,-1.58l-10.86,0l0,17.75m-990.47,-4.64l1.91,1.96l0,45.73c0,25.16 -0.19,45.97 -0.47,46.21c-0.23,0.24 -2.89,-0.38 -5.96,-1.43c-9.74,-3.44 -23.72,-2.77 -38.63,1.72c-10.06,3.06 -25.91,17.08 -31.5,27.79c-0.47,0.91 -1.21,2.34 -1.68,3.2c-0.51,0.91 -1.49,3.3 -2.19,5.41c-1.77,5.07 7.45,4.64 -98.59,4.4l-93.93,-0.24l-0.23,-66.68l-0.19,-66.73l2.05,-1.63l2.05,-1.67l132.74,0l132.7,0l1.91,1.96m-726.33,17.79l0.23,5.36l16.31,0l16.31,0l0.23,-5.36l0.23,-5.41l-16.77,0l-16.77,0l0.23,5.41m499.94,3.01c0,5.69 -0.79,7.13 -5.08,9.14l-3.49,1.63l-3.45,-2.06c-5.31,-3.2 -6.2,-2.73 -11.51,6.65c-5.31,9.38 -5.26,10.38 0.47,13.39l3.26,1.72l0,4.97c0,4.88 -0.05,5.02 -2.7,6.46c-6.29,3.4 -6.29,4.11 0,15.26c4.1,7.32 5.45,7.99 9.97,5.02c6.38,-4.11 12.53,-0.38 12.53,7.65c0,5.88 0.65,6.27 10.62,6.27c9.83,0 11.14,-0.77 11.14,-6.7c0,-4.45 0.65,-5.79 4.05,-7.94c2.8,-1.77 3.77,-1.67 7.87,0.67c4.33,2.49 8.25,1.72 8.25,-1.53c0,-0.19 1.58,-3.06 3.49,-6.41c4.66,-8.08 4.01,-10.48 -3.68,-13.44c-3.03,-1.15 -1.16,-11.72 2.05,-11.72c3.08,0 6.94,-6.98 4.57,-8.08c-0.75,-0.33 -4.01,-6.07 -4.61,-8.04c-0.23,-0.77 -0.75,-1.39 -1.12,-1.39c-0.37,0 -0.7,-0.48 -0.7,-1.1c0,-3.68 -3.63,-4.35 -9.04,-1.63l-4.1,2.06l-2.94,-1.82c-3.87,-2.39 -4.1,-2.82 -4.1,-7.22c0,-6.46 0.33,-6.27 -11.37,-6.27l-10.39,0l0,4.45m13.74,1.63c1.49,0.43 1.77,1.15 1.96,4.97c0.19,4.16 0.42,4.59 2.7,5.79c1.35,0.67 3.45,1.91 4.66,2.73c5.31,3.59 5.64,3.64 9.46,1.43l3.54,-2.01l2.14,2.63c2.19,2.68 2.98,7.08 1.26,7.08c-0.47,0 -1.96,0.86 -3.31,1.91l-2.42,1.91l0.09,7.41c0.14,6.84 0.28,7.56 1.96,8.66c5.31,3.59 5.64,4.21 4.1,7.37c-2.19,4.4 -3.4,4.88 -7.36,2.68c-3.59,-1.96 -5.5,-1.67 -8.81,1.34c-0.79,0.77 -1.96,1.43 -2.56,1.43c-3.26,0 -5.64,3.2 -5.64,7.61c0,4.78 -0.89,5.5 -6.29,4.97c-2.56,-0.24 -2.61,-0.33 -2.89,-4.21c-0.23,-4.26 -2.05,-7.08 -5.08,-8.08c-0.93,-0.29 -2.84,-1.39 -4.33,-2.39c-3.26,-2.25 -4.85,-2.34 -8.95,-0.33c-3.49,1.72 -3.91,1.53 -6.48,-3.3c-1.77,-3.25 -1.44,-3.83 3.17,-6.22c1.16,-0.57 2.14,-1.48 2.19,-1.96c0.05,-1.48 0.09,-14.35 0,-15.26c-0.05,-0.43 -1.49,-1.67 -3.21,-2.68c-3.54,-2.01 -3.68,-3.78 -0.61,-8.18c1.86,-2.68 1.4,-2.68 6.15,-0.19l3.87,2.01l2.52,-1.91c1.35,-1.05 3.77,-2.49 5.36,-3.25c3.77,-1.72 5.26,-4.07 5.26,-8.08c0,-4.45 1.91,-5.41 7.55,-3.87m-513.82,20.23l0,5.6l34.15,0l34.15,0l0,-5.6l0,-5.55l-34.15,0l-34.15,0l0,5.55m504.92,0.96c-9.46,4.69 -11.14,15.64 -3.59,23.39c3.77,3.87 10.86,4.83 15.84,2.1c15.66,-8.66 3.73,-33.48 -12.25,-25.49m1177.91,2.15c-0.93,1.29 -1.63,2.54 -1.63,2.82c0,0.24 -1.49,2.87 -3.35,5.84c-1.82,2.97 -3.59,5.93 -3.91,6.6c-0.28,0.62 -0.98,1.91 -1.49,2.77c-0.56,0.86 -1.44,2.44 -2,3.44c-1.35,2.49 -2.52,1.39 -4.85,-4.64c-0.98,-2.63 -2.28,-4.78 -2.8,-4.78c-1.16,0 -1.35,3.35 -0.33,5.41c0.42,0.77 1.68,3.78 2.8,6.74c1.16,2.97 2.52,5.41 3.03,5.41c0.75,0 5.5,-7.17 6.62,-9.95c0.19,-0.48 1.86,-3.25 3.68,-6.22c1.86,-2.97 3.4,-5.6 3.4,-5.84c0,-0.24 0.84,-1.72 1.91,-3.35c3.31,-4.97 2.24,-9.04 -1.07,-4.26m-1166.91,4.78c2.94,3.16 3.03,8.18 0.23,11.1c-2.94,2.97 -8.71,2.82 -11.18,-0.38c-6.1,-7.8 4.19,-17.94 10.95,-10.71m1181.92,-0.62c-0.28,0.48 -0.19,1.2 0.23,1.58c1.35,1.39 107.77,0.53 107.77,-0.86c0,-1.53 -107.07,-2.25 -108,-0.72m-1131.36,13.97c-6.52,2.77 -7.59,4.26 -6.2,8.32c1.91,5.6 0.19,7.61 -6.99,8.13l-3.08,0.19l-1.07,7.37c-1.26,8.51 -0.93,9.38 3.73,10.19c4.94,0.86 6.62,4.45 3.87,8.42c-2.52,3.64 -1.72,5.41 4.29,10.04c6.48,5.02 6.38,4.97 9.74,1.43c4.05,-4.3 7.27,-3.83 9.64,1.43c1.77,3.78 3.03,3.78 10.53,-0.05c6.29,-3.2 6.38,-3.3 5.08,-10.14c-0.65,-3.49 1.16,-5.55 4.85,-5.36c5.36,0.24 6.15,-0.77 6.76,-8.23c0.7,-8.71 0.37,-9.61 -3.68,-10.28c-5.54,-0.91 -6.8,-3.92 -3.63,-8.51c0.89,-1.24 1.49,-2.92 1.35,-3.68c-0.61,-3.2 -14.58,-12.01 -14.58,-9.18c0,5.21 -7.97,6.31 -10.25,1.39c-2.05,-4.26 -3.31,-4.45 -10.34,-1.48m1131.41,3.49c-0.23,0.43 -0.23,1.15 0,1.58c0.84,1.39 106.37,1.1 107.49,-0.29c0.7,-0.86 0.61,-1.2 -0.37,-1.58c-2.19,-0.86 -106.56,-0.57 -107.12,0.29m-1124.75,4.97c1.44,3.4 13.05,4.54 14.68,1.43c1.03,-2.01 3.26,-2.1 4.89,-0.24c1.12,1.29 1.12,1.58 -0.23,3.4c-1.86,2.49 -1.86,2.49 -0.09,6.6c0.84,1.87 1.72,4.02 1.96,4.78c0.23,0.77 2,2.1 3.91,2.92c4.66,2.06 4.29,6.22 -0.51,5.79c-2.38,-0.24 -3.03,0.1 -4.19,1.96c-0.75,1.24 -2.19,3.25 -3.26,4.4c-1.63,1.87 -1.82,2.68 -1.4,5.79c0.84,6.27 -2.89,6.79 -6.34,0.81c-1.35,-2.3 -11.51,-2.2 -13.65,0.14c-3.31,3.64 -7.64,0.67 -4.75,-3.25c1.44,-1.91 1.49,-3.97 0.09,-6.7c-0.61,-1.15 -1.49,-3.11 -1.96,-4.35c-0.84,-2.25 -1.16,-2.44 -4.94,-3.3c-4.47,-1 -2.24,-6.03 2.7,-6.03c1.63,0 2.94,-0.33 2.94,-0.72c0,-0.43 1.21,-2.39 2.7,-4.4c2.7,-3.64 3.45,-6.31 1.96,-7.22c-1.12,-0.72 -0.98,-3.4 0.19,-3.87c2.61,-1.1 4.24,-0.43 5.31,2.06m0.93,9.14c-5.17,1.05 -8.43,11.48 -5.17,16.6c7.69,12.05 25.67,0.96 18.82,-11.62c-2.56,-4.64 -7.08,-6.27 -13.65,-4.97m-573.93,7.61l0.23,5.79l71.99,0.19l72.03,0.19l0.47,-1.82c0.23,-1.05 0.33,-3.64 0.19,-5.79l-0.23,-3.92l-72.45,-0.24l-72.45,-0.19l0.23,5.79m581.24,-0.86c3.21,3.11 1.49,8.13 -2.84,8.13c-3.12,0 -4.71,-1.58 -4.71,-4.69c0,-4.5 4.33,-6.51 7.55,-3.44m1101.22,6.46c-0.61,1 -1.35,2.34 -1.68,2.97c-1.63,3.73 -11.09,19.23 -11.74,19.32c-0.47,0.05 -1.82,-2.1 -3.03,-4.78c-4.43,-9.52 -5.96,-6.27 -1.96,4.02c3.73,9.52 4.01,9.47 11.23,-2.87c3.4,-5.74 6.62,-11.38 7.18,-12.48c0.56,-1.1 1.54,-2.54 2.14,-3.25c1.44,-1.63 1.44,-4.74 0.05,-4.74c-0.61,0 -1.58,0.81 -2.19,1.82m-964.19,3.68c0.98,0.38 3.4,1.2 5.31,1.77c7.32,2.2 18.31,9.57 22.64,15.26c1.4,1.87 3.12,4.02 3.73,4.74c9.37,10.67 13.47,37.55 7.87,51.28c-11.83,28.99 -40.02,44.58 -66.49,36.78c-7.59,-2.25 -11.14,-3.97 -17.15,-8.27c-30.98,-22.19 -32.1,-69.69 -2.19,-91.89c3.59,-2.68 10.81,-6.65 13.51,-7.51c6.34,-1.91 7.73,-2.25 10.9,-2.87c4.19,-0.81 19.29,-0.33 21.85,0.72m980.08,-0.19c-0.56,0.24 -0.98,0.91 -0.98,1.53c0,1 7.92,1.15 53.91,1.15c53.16,0 57.45,-0.19 53.95,-2.49c-1.12,-0.72 -105.16,-0.91 -106.88,-0.19m-1698.35,16.41l0.23,5.79l71.99,0.24l72.03,0.19l0.47,-1.87c0.23,-1 0.33,-3.59 0.19,-5.79l-0.23,-3.92l-72.45,-0.19l-72.45,-0.19l0.23,5.74m695.21,-0.91c-0.33,0.48 -0.75,3.16 -0.93,5.98c-0.65,7.94 -5.17,10.67 -11.69,7.13c-2,-1.1 -4.24,-2.01 -4.94,-2.01c-1.12,0 -7.59,9.23 -7.64,10.95c-0.05,0.33 -0.7,1.48 -1.54,2.58c-2.28,2.97 -0.51,7.84 2.89,8.04c4.94,0.19 5.54,13.49 0.65,13.49c-1.3,0 -5.13,3.4 -5.13,4.59c0,2.06 8.71,16.88 10.25,17.36c0.79,0.29 3.17,-0.53 5.5,-1.82l4.05,-2.3l3.73,2.3c3.31,2.1 3.68,2.63 3.68,5.36c0,1.67 0.19,4.16 0.47,5.5l0.51,2.49l9.92,0c11.46,0 11.6,-0.05 11.6,-7.03c0,-3.87 0.09,-4.02 3.68,-6.31l3.63,-2.3l4.47,2.44c5.13,2.82 6.06,2.39 9.74,-4.3c1.12,-2.01 2.8,-4.93 3.82,-6.55c2.7,-4.4 0.89,-9.42 -3.4,-9.42c-4.99,0 -3.96,-13.35 1.03,-13.49c1.12,-0.05 4.19,-3.49 4.19,-4.64c0,-0.53 -1.54,-3.68 -3.49,-7.03c-1.91,-3.3 -3.49,-6.22 -3.49,-6.41c0,-3.44 -5.31,-4.02 -9.37,-1.05c-4.47,3.3 -10.81,-0.48 -10.81,-6.41c0,-7.7 -0.37,-7.99 -11.32,-7.99c-6.15,0 -9.74,0.33 -10.06,0.86m1002.67,2.06c-0.28,0.29 -0.51,0.81 -0.51,1.2c0,0.38 24.46,0.67 54.37,0.67c49.62,0 57.26,-0.29 53.12,-1.91c-1.68,-0.67 -106.32,-0.62 -106.98,0.05m-988.74,3.92c0.93,0.38 1.26,1.63 1.26,4.59c0,4.83 0.28,5.36 3.87,7.13c1.49,0.72 3.77,2.06 5.03,2.92c3.08,2.15 5.22,2.06 8.9,-0.33l2.98,-1.91l1.96,3.01c2.94,4.5 2.84,5.17 -0.98,8.18l-3.49,2.68l0,7.56l0,7.56l2.42,1.58c1.3,0.91 3.03,2.01 3.82,2.49c1.44,0.86 0.47,3.68 -2.66,7.65c-1.12,1.39 -1.16,1.39 -6.15,-1.24c-2.47,-1.34 -2.52,-1.34 -7.69,1.87c-2.89,1.77 -5.64,3.2 -6.15,3.2c-1.3,0 -1.86,1.91 -1.86,6.51l0,3.97l-4.85,-0.24l-4.89,-0.24l-0.19,-3.2c-0.33,-4.83 -0.89,-6.79 -2,-6.79c-0.56,0 -3.35,-1.43 -6.24,-3.2c-4.75,-2.97 -5.4,-3.16 -6.94,-2.2c-5.08,3.25 -5.82,3.25 -7.97,-0.24c-3.08,-5.02 -3.08,-5.26 0.33,-7.03c4.15,-2.2 4.19,-2.3 4.1,-10.71c-0.14,-7.8 -0.33,-8.23 -5.45,-11.67l-1.82,-1.24l2.24,-3.78c2.52,-4.3 2.47,-4.26 6.48,-2.15c3.82,2.01 5.26,2.01 8.15,-0.05c1.3,-0.86 3.59,-2.2 5.08,-2.92c3.49,-1.72 3.82,-2.3 3.87,-6.65c0,-5.07 3.59,-7.13 8.85,-5.07m-709.14,20.47l0.23,5.79l64.86,0l64.81,0l0.23,-5.79l0.23,-5.79l-65.28,0l-65.32,0l0.23,5.79m700.89,-0.48c-6.66,1.2 -11.69,12.87 -8.39,19.47c6.94,13.82 26.42,9.85 26.42,-5.41c0,-10.19 -7.36,-15.93 -18.03,-14.06m-56.84,12.25c0.09,5.45 0.56,11.77 1.07,13.92c0.47,2.2 1.12,5.36 1.3,6.98l0.42,3.01l-100.13,0l-100.13,0l-2.05,-2.1l-2.05,-2.1l0,-14.54c0,-7.94 0.23,-14.73 0.51,-15.02c0.28,-0.29 45.61,-0.43 100.73,-0.33l100.22,0.19l0.09,10m1036.83,-5.93c-1.4,2.44 -2.89,5.02 -3.31,5.79c-7.45,13.15 -8.95,14.78 -10.48,11.48c-2.89,-6.27 -3.49,-7.37 -4.43,-7.7c-1.68,-0.67 -1.16,2.68 1.54,9.66c3.17,8.37 3.96,8.47 8.34,1.39c1.91,-3.11 3.91,-6.36 4.47,-7.17c0.51,-0.86 1.21,-2.06 1.49,-2.73c0.28,-0.62 2.05,-3.64 3.87,-6.7c1.86,-3.11 3.35,-6.27 3.35,-7.03c0,-2.82 -2.38,-1.34 -4.85,3.01m-970.01,2.06c3.59,3.4 1.96,10.62 -2.84,12.63c-4.89,2.1 -10.06,-1.77 -10.06,-7.56c0,-6.79 7.92,-9.9 12.91,-5.07m-252.16,2.25c-4.85,4.64 -5.03,11.81 -0.42,16.65c8.9,9.38 23.25,0.96 19.94,-11.72c-2.19,-8.42 -13,-11.14 -19.52,-4.93m1238.67,-2.54c0,2.44 2,2.54 54.37,2.54c52.32,0 54.33,-0.1 54.33,-2.54c0,-0.33 -24.46,-0.62 -54.33,-0.62c-29.91,0 -54.37,0.29 -54.37,0.62m-1226.6,6.65c4.85,3.87 -0.42,12.68 -5.92,9.81c-4.33,-2.34 -4.71,-8.37 -0.61,-10.48c2.7,-1.43 4.1,-1.29 6.52,0.67m1226.6,10.67c0,1.05 6.48,1.2 54.42,1.2c43.19,0 54.37,-0.24 54.09,-1c-0.51,-1.67 -108.51,-1.87 -108.51,-0.19m-1075.5,34.2c0,14.06 -0.19,16.31 -1.26,16.74c-0.65,0.24 -13.74,0.48 -29.03,0.48c-15.33,0 -28.37,-0.24 -29.07,-0.48c-1.26,-0.53 -1.96,-31.23 -0.7,-32.48c0.28,-0.29 13.88,-0.53 30.29,-0.53l29.77,0l0,16.26m-495.47,-8.85c0,8.27 -0.19,8.51 -8.29,8.51l-6.43,0l0,5.55l0,5.55l7.18,0.24l7.18,0.24l0.23,6.98l0.23,6.94l5.36,0l5.36,0l0.23,-6.94l0.23,-6.98l7.22,-0.24l7.22,-0.24l-0.23,-5.36l-0.23,-5.36l-6.2,-0.24c-8.01,-0.29 -8.15,-0.48 -8.15,-8.61l0,-6.7l-5.45,0l-5.45,0l0,6.65m1556.29,1.24c-0.93,1.29 -1.63,2.54 -1.63,2.77c0,0.24 -2.42,4.4 -5.45,9.28c-2.98,4.88 -5.4,9.18 -5.4,9.61c0,0.38 -0.51,0.77 -1.07,0.77c-0.98,0 -5.17,-7.8 -5.17,-9.61c0,-0.43 -0.51,-0.77 -1.16,-0.77c-1.3,0 -1.58,3.16 -0.47,5.41c0.37,0.77 1.03,2.25 1.44,3.35c2.66,6.84 3.63,8.8 4.38,8.8c0.79,-0.05 5.68,-7.56 9.13,-13.97c0.7,-1.34 2.89,-5.07 4.85,-8.32c4.52,-7.51 4.99,-13.68 0.56,-7.32m15.52,4.02c-0.93,0.62 -0.93,0.96 -0.09,2.01c0.89,1.1 6.62,1.24 53.12,1.24c53.67,-0.05 56.66,-0.24 53.91,-3.06c-1.12,-1.15 -105.16,-1.34 -106.93,-0.19m-0.51,17.65c-0.28,0.48 -0.19,1.24 0.23,1.63c1.35,1.39 107.77,0.53 107.77,-0.86c0,-1.53 -107.07,-2.3 -108,-0.77m-1062.83,10.71c7.27,3.73 6.57,15.02 -1.12,18.37c-4.1,1.72 -80.23,1.72 -84.33,0c-7.59,-3.25 -8.71,-13.73 -1.96,-17.94c3.49,-2.2 83.21,-2.54 87.41,-0.43"
        fill="#109A97" fill-rule="evenodd" id="path0" />
      <path
        d="m654.41,61.65c-7.08,9.09 -7.55,10 -5.78,11.67c2.05,1.91 2.84,1.63 5.78,-1.91c1.44,-1.72 2.89,-2.92 3.17,-2.63c0.75,0.77 0.56,45.82 -0.23,64.81c-0.42,8.99 -0.79,34.39 -0.89,56.49l-0.19,40.08l1.86,1.15c2.8,1.63 2.98,1.67 9.09,2.63c8.99,1.43 13.93,1.2 14.91,-0.67c1.16,-2.2 -1.35,-4.64 -5.4,-5.31c-3.26,-0.53 -4.05,-1.58 -1.77,-2.44c0.75,-0.29 1.54,-0.72 1.77,-1c0.42,-0.48 3.54,-2.3 8.62,-5.02c1.86,-0.96 3.59,-1.96 3.77,-2.2c0.51,-0.48 2.28,-1.48 10.67,-6.07c3.73,-2.01 8.57,-4.69 10.72,-5.88c3.21,-1.82 11.51,-6.31 21.34,-11.58c3.4,-1.87 38.25,-19.23 42.73,-21.33c2.33,-1.1 8.39,-4.02 13.47,-6.46c5.03,-2.44 9.32,-4.45 9.5,-4.45c0.19,0 2,-0.77 4.01,-1.67c3.68,-1.67 4.38,-2.01 9.5,-4.16c1.49,-0.62 4.75,-2.1 7.22,-3.25c2.47,-1.15 4.61,-2.1 4.85,-2.1c0.19,0 2.05,-0.72 4.05,-1.67c4.24,-1.91 4.85,-2.15 12.21,-5.12c6.29,-2.49 8.25,-3.25 10.72,-4.26c0.93,-0.43 4.19,-1.72 7.18,-2.92c2.98,-1.2 6.1,-2.44 6.99,-2.77c0.84,-0.38 4.15,-1.63 7.36,-2.77c3.21,-1.15 6.52,-2.44 7.36,-2.82c2.7,-1.15 10.48,-3.87 22.92,-8.04c6.62,-2.25 12.72,-4.35 13.61,-4.69c0.84,-0.29 4.52,-1.53 8.15,-2.73c3.63,-1.2 7.27,-2.49 8.15,-2.87c0.84,-0.33 2.42,-0.86 3.49,-1.05c2.1,-0.43 4.99,-1.24 11.65,-3.3c8.85,-2.68 9.74,-2.92 11.65,-3.3c1.07,-0.24 2.61,-0.72 3.49,-1.1c1.63,-0.77 8.95,-2.73 23.3,-6.27c1.68,-0.43 5.36,-1.39 8.15,-2.15c6.62,-1.77 10.48,-2.68 14.72,-3.54c6.85,-1.39 10.58,-2.2 16.31,-3.59c3.21,-0.77 7.41,-1.72 9.32,-2.06c1.96,-0.38 5.26,-1 7.41,-1.43c2.14,-0.43 6.34,-1.15 9.32,-1.63c2.98,-0.48 5.92,-1.05 6.57,-1.34c0.65,-0.19 3.59,-0.77 6.62,-1.24c2.98,-0.43 7.18,-1.1 9.32,-1.48c25.58,-4.4 57.4,-8.18 86.99,-10.28c6.8,-0.53 16.77,-1.29 22.13,-1.72c12.58,-1.05 86.8,-1.05 99.38,0c5.36,0.43 15.28,1.24 22.13,1.72c31.12,2.25 63.74,6.07 86.99,10.24c2.14,0.38 6.15,1.1 8.9,1.58c2.8,0.48 7.87,1.43 11.28,2.1c3.4,0.67 8.29,1.58 10.86,1.96c7.5,1.24 12.07,2.25 26.42,5.69c1.72,0.43 4.66,1.1 6.62,1.53c4.19,0.91 7.97,1.77 15.14,3.54c2.98,0.72 6.8,1.63 8.53,2.01c5.4,1.2 9.18,2.2 13.61,3.54c7.83,2.39 9.69,2.92 12.39,3.64c3.31,0.81 6.8,1.82 12.44,3.59c2.33,0.77 5.4,1.53 6.8,1.77c1.4,0.19 2.7,0.72 2.98,1.1c0.19,0.38 1.12,0.72 1.96,0.72c1.35,0 52.88,17.22 56.98,19.09c0.84,0.33 2.8,1.1 4.29,1.67c3.59,1.29 7.83,3.11 9.5,4.02c0.75,0.38 1.86,0.72 2.52,0.72c0.65,0 1.77,0.33 2.52,0.72c0.75,0.43 3.82,1.72 6.8,2.92c2.98,1.15 6.15,2.44 6.99,2.77c0.84,0.33 3.31,1.29 5.45,2.06c2.14,0.72 4.19,1.67 4.61,2.01c0.42,0.38 1.21,0.67 1.77,0.67c0.51,0 2.56,0.72 4.47,1.63c5.73,2.58 10.72,4.88 13.19,5.93c1.3,0.57 4.38,1.96 6.85,3.11c2.47,1.15 4.66,2.1 4.85,2.1c0.19,0 1.96,0.72 3.87,1.58c8.15,3.73 13.84,6.27 17.84,8.04c7.55,3.25 54.28,26.59 64.06,32c2.8,1.53 8.2,4.5 12.02,6.6c3.87,2.1 9.64,5.26 12.81,7.03c3.21,1.77 7.22,3.97 8.95,4.88c1.72,0.91 4.15,2.44 5.45,3.35c5.31,3.83 5.73,3.87 7.04,0.62c1.4,-3.44 1.63,-3.16 -6.29,-7.51c-3.4,-1.87 -6.52,-3.64 -6.99,-3.97c-0.42,-0.33 -4.1,-2.39 -8.15,-4.59c-9.69,-5.26 -16.91,-9.18 -24.04,-13.15c-3.21,-1.77 -6.71,-3.68 -7.78,-4.26c-4.05,-2.2 -52.7,-26.16 -55.54,-27.41c-0.84,-0.33 -3.26,-1.43 -5.4,-2.39c-5.31,-2.39 -9.04,-4.02 -10.9,-4.78c-0.84,-0.38 -3.26,-1.43 -5.4,-2.39c-2.14,-0.96 -4.94,-2.25 -6.24,-2.77c-1.26,-0.57 -4.33,-1.96 -6.8,-3.11c-2.47,-1.15 -4.66,-2.1 -4.85,-2.1c-0.23,0 -1.86,-0.67 -3.68,-1.48c-1.82,-0.86 -4.52,-1.96 -6.01,-2.54c-1.49,-0.53 -3.96,-1.53 -5.45,-2.15c-4.8,-2.06 -5.68,-2.39 -13.56,-5.36c-4.29,-1.63 -8.48,-3.25 -9.32,-3.59c-0.89,-0.38 -4.01,-1.63 -6.99,-2.82c-3.03,-1.2 -6.15,-2.49 -6.99,-2.82c-0.89,-0.38 -4.38,-1.63 -7.78,-2.77c-3.4,-1.15 -6.8,-2.44 -7.55,-2.82c-0.75,-0.43 -2.05,-0.77 -2.89,-0.77c-0.84,0 -1.72,-0.29 -1.91,-0.67c-0.23,-0.38 -1.4,-0.91 -2.61,-1.1c-2.28,-0.43 -11.37,-3.54 -13.56,-4.69c-0.75,-0.38 -1.91,-0.72 -2.56,-0.72c-0.65,0 -1.77,-0.29 -2.52,-0.67c-2.05,-1.05 -11.18,-4.26 -13.37,-4.64c-1.07,-0.19 -2.66,-0.67 -3.49,-1.05c-0.89,-0.38 -2.42,-0.86 -3.49,-1.1c-1.07,-0.19 -5.26,-1.34 -9.32,-2.49c-4.05,-1.2 -8.43,-2.44 -9.74,-2.77c-1.26,-0.38 -4.43,-1.29 -6.99,-2.01c-2.56,-0.77 -5.68,-1.67 -6.99,-2.06c-1.26,-0.33 -3.73,-1.05 -5.4,-1.53c-1.72,-0.53 -4.33,-1.2 -5.82,-1.58c-1.49,-0.33 -5.36,-1.34 -8.57,-2.2c-3.17,-0.86 -7.92,-2.01 -10.48,-2.54c-5.03,-1.05 -8.25,-1.87 -13.33,-3.2c-1.77,-0.48 -4.89,-1.24 -6.99,-1.72c-2.05,-0.43 -5.31,-1.15 -7.22,-1.58c-1.96,-0.43 -5.26,-1.1 -7.41,-1.48c-2.1,-0.43 -6.85,-1.29 -10.48,-2.01c-9.92,-1.91 -16.21,-3.06 -29.12,-5.17c-7.18,-1.2 -25.81,-3.68 -41.93,-5.6c-3.4,-0.43 -7.78,-0.96 -9.69,-1.2c-12.86,-1.53 -39.04,-3.73 -59.78,-4.97c-15.28,-0.91 -84.99,-0.67 -102.13,0.38c-22.08,1.34 -35.41,2.34 -38.49,2.92c-1.49,0.24 -6.52,0.86 -11.23,1.34c-4.71,0.48 -11,1.15 -13.98,1.53c-2.98,0.38 -8.39,1 -12.02,1.48c-16.26,1.96 -24.09,3.2 -31.64,4.93c-1.86,0.38 -4.19,0.72 -5.26,0.72c-1.03,0 -3.4,0.33 -5.22,0.77c-1.82,0.43 -6.62,1.34 -10.67,2.06c-4.05,0.72 -8.81,1.58 -10.48,1.96c-1.72,0.38 -5.22,1.1 -7.78,1.63c-2.56,0.53 -6.94,1.43 -9.69,2.1c-2.8,0.62 -6.8,1.53 -8.95,1.96c-3.68,0.81 -6.43,1.48 -12.81,3.16c-11.28,2.92 -16.35,4.16 -19.01,4.78c-5.36,1.1 -14.26,3.49 -21.39,5.6c-1.49,0.48 -3.91,1.15 -5.4,1.53c-3.31,0.81 -6.8,1.82 -12.44,3.59c-2.33,0.77 -5.4,1.53 -6.8,1.77c-1.4,0.19 -2.7,0.72 -2.94,1.1c-0.28,0.38 -1.12,0.72 -1.96,0.72c-0.84,0 -2.14,0.33 -2.89,0.77c-0.75,0.38 -4.47,1.67 -8.34,2.87c-3.82,1.15 -7.69,2.39 -8.53,2.73c-0.84,0.38 -5.73,2.1 -10.86,3.87c-12.72,4.35 -23.02,8.04 -24.88,8.9c-0.84,0.38 -3.12,1.24 -5.03,1.87c-1.91,0.62 -4.52,1.58 -5.82,2.1c-1.3,0.57 -3.03,1.29 -3.87,1.63c-2.61,1 -12.35,4.88 -14.16,5.64c-2.47,1 -4.43,1.77 -10.72,4.26c-7.73,3.11 -8.06,3.25 -13,5.55c-2.47,1.1 -4.66,2.06 -4.89,2.06c-0.33,0 -3.08,1.2 -11.83,5.26c-2.24,1.05 -4.24,1.91 -4.43,1.91c-0.42,0 -8.71,3.83 -24.09,11.19c-2.56,1.2 -6.38,3.01 -8.53,3.97c-5.13,2.34 -41.89,21.14 -49.3,25.26c-3.21,1.77 -9.32,5.07 -13.61,7.41c-7.45,4.02 -13.47,7.41 -18.82,10.48c-1.4,0.81 -3.68,2.15 -5.03,2.97c-12.72,7.37 -13.33,7.46 -11.09,1.96c1.58,-3.87 1.44,-5.6 -0.47,-6.65c-1.91,-1.05 -4.57,0.86 -4.57,3.3c0,0.77 -0.51,1.72 -1.07,2.06c-0.56,0.33 -1.21,1.2 -1.44,1.82c-0.61,1.77 0.05,-61.75 1.03,-107.62c1.03,-45.15 0.79,-43.38 4.47,-37.84c2.05,3.06 4.38,3.59 5.96,1.39c1.12,-1.53 0.61,-2.97 -2.47,-6.98c-1.03,-1.34 -2.1,-2.73 -2.42,-3.2c-7.69,-10.71 -7.41,-10.71 -14.72,-1.39m273.92,185.3c-11.65,3.25 -17.61,6.6 -24.55,13.87c-10.95,11.38 -12.02,15.69 -12.77,50.94c-0.61,28.79 -0.7,29.56 -4.19,36.26c-1.96,3.83 -8.99,10.57 -13,12.53c-7.27,3.49 -8.34,3.64 -28.79,4.02l-19.99,0.38l0,3.11l0,3.11l21.29,0c13.37,0 21.53,0.29 21.81,0.81c0.28,0.43 1.35,0.77 2.38,0.77c1.03,0 1.91,0.29 1.91,0.62c0,0.33 0.98,1.05 2.14,1.58c3.82,1.72 10.62,8.66 12.53,12.68c0.98,2.15 2.14,4.54 2.56,5.41c0.47,0.86 1.07,12.01 1.4,25.11c0.79,29.94 2.47,35.83 13.65,47.4c4.8,5.02 14.16,10.86 17.38,10.86c0.7,0 1.68,0.43 2.24,1c1.3,1.34 648.38,1.87 655.33,0.57c7.87,-1.53 8.71,-1.72 8.71,-2.49c0,-0.38 0.37,-0.67 0.84,-0.67c4.57,0 16.73,-12.01 21.85,-21.52c4.05,-7.65 4.52,-11.19 5.22,-39.46c0.47,-18.89 0.93,-26.26 1.72,-28.32c6.8,-17.27 17.57,-23.1 42.63,-23.1c17.24,0 17.61,0.1 13.88,3.49c-2.89,2.68 -2.98,6.31 -0.09,6.7c1.54,0.24 7.55,-3.49 10.9,-6.79c0.56,-0.57 1.26,-1 1.54,-1c1.03,-0.05 5.59,-4.88 5.59,-5.98c0,-1.34 -3.35,-5.21 -4.47,-5.21c-0.42,0 -1.26,-0.57 -1.86,-1.29c-2.56,-3.16 -11,-8.18 -12.44,-7.41c-2.52,1.39 -1.86,5.12 1.3,7.13c4.43,2.82 2.7,3.2 -15.42,3.2c-26.65,0 -35.74,-5.26 -43.66,-25.11c-0.98,-2.54 -1.4,-7.94 -1.91,-25.54c-0.42,-13.49 -1.03,-23.39 -1.58,-25.11c-1.3,-3.87 -4.8,-11.38 -5.78,-12.39c-0.42,-0.48 -2,-2.49 -3.49,-4.5c-5.08,-6.84 -12.81,-11.81 -23.02,-14.92l-5.5,-1.67l-321.82,0.1c-201.61,0.05 -322.79,0.38 -324.47,0.86m651.41,6.7c6.29,1.91 15.24,7.84 18.45,12.25c0.51,0.67 1.68,2.15 2.61,3.25c1.82,2.15 3.96,6.65 5.26,11.14c2,6.79 2.52,12.39 2.52,28.94c0,19.28 0.19,20.38 4.85,30.04c2.75,5.6 10.39,14.06 14.68,16.22c6.48,3.3 6.48,3.4 0.05,7.94c-7.83,5.5 -12.86,12.05 -15.75,20.52c-1.68,4.83 -1.82,6.89 -2.28,30.66c-0.28,14.06 -0.89,26.83 -1.35,28.41c-3.31,12.15 -13.79,23.25 -26.23,27.89c-6.29,2.34 -17.61,2.39 -333.14,2.1c-175.1,-0.14 -319.58,-0.57 -321.07,-0.91c-9.64,-2.1 -19.71,-9.47 -25.25,-18.42c-5.08,-8.27 -5.73,-12.01 -6.15,-36.26c-0.37,-22.19 -0.75,-24.87 -4.33,-32.29c-2.24,-4.54 -10.06,-13.11 -13.79,-15.07c-2.8,-1.48 -3.26,-3.44 -1.03,-4.3c2.8,-1.1 8.71,-6.84 12.02,-11.67c6.57,-9.57 6.76,-10.76 7.18,-41.14c0.33,-27.89 0.61,-30.13 4.43,-39.03c3.45,-8.08 13.42,-16.22 24.27,-19.9c6.43,-2.15 646.99,-2.54 654.07,-0.38m-926.68,24.78c-0.61,1.72 1.4,3.83 3.03,3.2c0.65,-0.29 1.21,-1.39 1.21,-2.49c0,-2.44 -3.35,-2.97 -4.24,-0.72m-20.87,0.81c-0.28,0.29 -0.51,6.22 -0.51,13.15l0,12.63l2.33,0l2.33,0l0,-5.17c0,-5.79 -0.05,-5.79 6.99,-6.22c5.82,-0.33 4.71,-2.49 -1.54,-2.97l-5.08,-0.43l0,-3.97l0,-3.97l5.64,-0.24c4.99,-0.24 5.64,-0.43 5.64,-1.82c0,-1.58 -14.35,-2.49 -15.79,-1m35.6,6.41c-5.96,1.48 -5.36,10.57 0.7,10.57c2.52,0 5.13,1.87 5.13,3.68c0,2.39 -2.52,3.16 -6.34,1.87c-3.31,-1.1 -4.52,-0.57 -3.26,1.43c1.91,3.16 10.16,3.16 12.3,0c2.84,-4.21 0.93,-7.99 -4.75,-9.47c-6.57,-1.67 -5.87,-5.79 0.93,-5.31c4.61,0.29 5.5,-1.29 1.35,-2.49c-3.12,-0.91 -3.54,-0.91 -6.06,-0.29m20.13,0.24c-8.62,2.68 -7.22,17.84 1.82,19.61c4.47,0.86 11.37,-4.3 7.64,-5.74c-0.61,-0.24 -1.96,0.29 -2.89,1.2c-4.99,4.78 -11.37,-4.11 -7.22,-10.14c1.35,-2.01 5.54,-2.39 8.11,-0.77c1.3,0.81 1.72,0.81 2.33,-0.19c1.68,-2.82 -4.85,-5.45 -9.78,-3.97m19.34,0.05c-2.89,0.86 -3.68,1.87 -3.03,3.64c0.33,0.91 0.75,1 1.44,0.48c1.63,-1.39 5.82,-1.96 7.5,-1c2.61,1.43 0.75,3.68 -4.38,5.21c-6.62,1.96 -8.34,5.64 -4.52,9.57c2.28,2.39 4.94,2.54 7.55,0.43c1.72,-1.39 2.14,-1.43 3.45,-0.43c1.82,1.43 5.73,1.53 5.73,0.19c0,-0.57 -0.7,-1.48 -1.58,-2.01c-1.3,-0.86 -1.54,-1.87 -1.54,-7.27c0,-8.37 -3.26,-11.1 -10.62,-8.8m-53.81,9.52l0,9.57l1.91,0l1.96,0l0,-9.57l0,-9.57l-1.96,0l-1.91,0l0,9.57m61.18,1.72c0.51,2.63 -2.19,5.55 -4.8,5.26c-3.59,-0.33 -3.68,-5.5 -0.09,-6.31c3.35,-0.72 4.61,-0.48 4.89,1.05m-242.19,58.21c-0.84,1.53 -0.56,2.06 2.47,4.78c2.8,2.54 3.21,3.2 2.24,3.83c-0.7,0.48 -46.5,0.77 -120.58,0.77l-119.46,0.05l0.28,2.97l0.23,3.01l119.18,0.19c65.56,0.1 119.7,0.38 120.26,0.57c0.75,0.29 0,1.39 -2.24,3.44c-2.98,2.73 -3.21,3.2 -2.42,4.78c1.49,2.77 3.08,2.15 11.97,-4.64c9.32,-7.17 9.5,-7.61 5.4,-11c-12.58,-10.43 -15.66,-11.96 -17.33,-8.75m1296.39,138.9c-1.16,3.11 0.23,4.4 6.15,5.6c1.16,0.29 2.1,0.77 2.1,1.2c0,0.38 -0.93,1.2 -2.1,1.82c-1.21,0.62 -7.04,4.3 -13.05,8.13c-23.62,15.26 -24.32,15.69 -37.65,22.86c-1.91,1.05 -3.68,2.06 -3.87,2.3c-0.47,0.48 -1.91,1.29 -9.46,5.45c-3.12,1.72 -7.97,4.45 -10.76,6.07c-8.15,4.69 -62.11,31.66 -67.93,33.96c-0.84,0.33 -2.94,1.2 -4.66,1.91c-1.72,0.72 -3.82,1.63 -4.66,1.96c-2.94,1.2 -5.45,2.3 -8.95,3.87c-1.91,0.86 -7.5,3.25 -12.39,5.31c-4.94,2.06 -10.02,4.26 -11.28,4.83c-2.28,1.05 -12.11,4.69 -20.59,7.56c-2.33,0.81 -9.32,3.35 -15.52,5.6c-16.87,6.12 -20.97,7.46 -32.99,10.81c-2.56,0.72 -5.26,1.63 -6.01,2.06c-0.75,0.38 -1.91,0.67 -2.56,0.67c-0.65,0 -4.1,0.91 -7.59,2.06c-3.49,1.1 -7.78,2.39 -9.46,2.87c-1.72,0.48 -4.01,1.15 -5.08,1.48c-2.61,0.91 -15.56,4.07 -26,6.36c-1.72,0.38 -4.52,1.05 -6.2,1.48c-1.72,0.38 -5.73,1.34 -8.95,2.1c-3.21,0.77 -7.22,1.72 -8.95,2.1c-3.63,0.91 -8.34,1.87 -14.72,2.92c-2.56,0.48 -7.13,1.24 -10.11,1.72c-2.98,0.53 -6.71,1.29 -8.25,1.67c-1.54,0.43 -3.73,0.77 -4.85,0.77c-1.12,0 -3.49,0.33 -5.36,0.77c-11,2.54 -37.41,5.98 -61.41,7.99c-5.5,0.43 -10.3,1 -10.67,1.24c-2.98,1.91 -95.75,3.54 -116.44,2.06c-6.62,-0.48 -19.9,-1.43 -29.49,-2.1c-9.6,-0.67 -18.87,-1.43 -20.59,-1.63c-1.68,-0.24 -6.76,-0.77 -11.23,-1.2c-13.09,-1.2 -20.78,-2.1 -30.29,-3.54c-4.94,-0.77 -11.42,-1.67 -14.4,-2.06c-11.04,-1.43 -24.37,-3.54 -26.51,-4.26c-0.79,-0.24 -3.87,-0.86 -6.85,-1.34c-16.17,-2.63 -21.25,-3.59 -27.58,-5.12c-2.8,-0.67 -6.99,-1.63 -9.32,-2.06c-2.33,-0.48 -5.68,-1.2 -7.36,-1.58c-1.72,-0.38 -4.85,-1 -6.99,-1.43c-4.05,-0.81 -15.89,-3.59 -20.59,-4.88c-3.54,-0.96 -21.39,-5.55 -24.83,-6.41c-1.49,-0.33 -4.85,-1.24 -7.41,-1.96c-2.56,-0.77 -5.78,-1.72 -7.18,-2.1c-2.75,-0.77 -7.04,-2.01 -10.67,-3.06c-7.04,-2.06 -12.16,-3.49 -16.31,-4.54c-2.56,-0.67 -5.36,-1.48 -6.2,-1.82c-0.89,-0.33 -4.71,-1.63 -8.57,-2.82c-3.82,-1.2 -7.69,-2.44 -8.53,-2.77c-0.84,-0.33 -5.73,-2.01 -10.86,-3.68c-5.13,-1.67 -9.88,-3.3 -10.48,-3.59c-2.56,-1.2 -11.42,-4.16 -13.42,-4.5c-1.16,-0.24 -2.33,-0.72 -2.56,-1.1c-0.23,-0.38 -1.12,-0.72 -1.96,-0.72c-0.84,0 -2.1,-0.33 -2.84,-0.77c-0.75,-0.38 -4.01,-1.67 -7.18,-2.82c-3.21,-1.2 -6.52,-2.44 -7.41,-2.77c-0.84,-0.38 -4.15,-1.63 -7.36,-2.82c-3.21,-1.15 -6.52,-2.39 -7.36,-2.73c-0.89,-0.38 -4.01,-1.63 -6.99,-2.82c-2.98,-1.2 -6.15,-2.44 -6.99,-2.82c-0.89,-0.33 -3.68,-1.43 -6.24,-2.39c-2.56,-1 -5.87,-2.34 -7.36,-2.97c-4.1,-1.77 -5.54,-2.34 -9.09,-3.68c-1.82,-0.72 -4.94,-2.01 -6.99,-2.97c-2.05,-0.91 -4.43,-1.96 -5.26,-2.34c-0.89,-0.33 -3.26,-1.39 -5.31,-2.34c-2.05,-0.91 -6.24,-2.73 -9.32,-3.97c-3.08,-1.24 -7.59,-3.2 -10.02,-4.35c-7.87,-3.64 -13.37,-6.17 -15.75,-7.22c-1.3,-0.57 -4.43,-2.01 -6.99,-3.2c-2.56,-1.2 -6.24,-2.92 -8.15,-3.78c-1.91,-0.91 -7.69,-3.68 -12.81,-6.22c-5.13,-2.54 -11.79,-5.74 -14.77,-7.17c-9.92,-4.64 -34.11,-17.27 -37.18,-19.42c-4.05,-2.82 -6.34,-3.35 -7.78,-1.82c-0.65,0.62 -1.58,1.34 -2.1,1.48c-1.07,0.38 -1.03,69.02 0.09,97.1c1.21,30.23 1.03,65.39 -0.37,65.39c-0.65,0 -1.16,-0.29 -1.16,-0.62c0,-1.1 -3.96,-4.97 -5.03,-4.97c-3.31,0 -3.82,3.44 -1.03,6.51c0.56,0.57 2.05,2.49 3.31,4.26c7.73,10.62 8.2,10.86 12.21,5.79c6.71,-8.51 9.83,-13.78 9.09,-15.16c-1.3,-2.34 -4.19,-1.67 -6.24,1.39c-3.68,5.55 -3.45,7.22 -4.47,-37.07c-1.58,-71.46 -1.72,-116.38 -0.42,-116.38c0.65,0 11.04,4.97 23.06,11.05c12.07,6.12 24.74,12.44 28.14,14.06c21.62,10.38 21.29,10.24 28.56,13.49c1.35,0.62 4.52,2.06 6.99,3.2c2.42,1.1 6.43,2.97 8.9,4.11c2.47,1.1 5.68,2.58 7.18,3.25c1.49,0.67 3.35,1.53 4.1,1.91c0.75,0.43 1.68,0.72 2.1,0.72c0.42,0 2.61,0.86 4.85,1.91c8.76,4.07 11.51,5.26 11.83,5.26c0.23,0 2.24,0.86 4.47,1.91c2.28,1.05 6.2,2.73 8.76,3.73c2.56,0.96 5.92,2.3 7.41,2.97c4.05,1.72 5.36,2.25 10.48,4.21c2.56,0.96 5.68,2.25 6.99,2.82c1.26,0.53 3.87,1.53 5.82,2.2c1.91,0.62 4.52,1.58 5.82,2.1c3.59,1.53 5.22,2.15 8.15,3.2c1.49,0.53 3.4,1.24 4.24,1.58c0.89,0.38 4.01,1.58 6.99,2.68c2.98,1.05 8.62,3.11 12.44,4.54c3.82,1.39 7.97,2.73 9.13,2.92c1.16,0.24 2.33,0.72 2.56,1.1c0.23,0.38 1.21,0.72 2.19,0.72c0.93,0 2.05,0.29 2.47,0.62c0.37,0.33 3.87,1.67 7.73,2.92c3.82,1.24 7.69,2.54 8.53,2.87c0.84,0.33 5.73,1.91 10.86,3.59c5.13,1.63 9.88,3.16 10.48,3.4c2.05,0.72 14.3,4.21 16.31,4.64c1.07,0.24 2.66,0.72 3.49,1.1c0.89,0.38 2.42,0.86 3.49,1.05c3.03,0.62 14.21,3.78 15.93,4.54c0.84,0.38 2.42,0.81 3.49,1.05c1.86,0.33 18.31,4.54 24.09,6.12c4.24,1.15 16.35,4.11 19.8,4.83c1.68,0.38 5.03,1.05 7.36,1.58c2.33,0.48 5.68,1.2 7.36,1.53c1.72,0.33 5.73,1.24 8.95,2.01c6.48,1.53 10.72,2.39 17.1,3.54c2.33,0.38 7.22,1.29 10.86,2.01c3.63,0.72 8.85,1.67 11.65,2.1c2.8,0.48 6.99,1.15 9.32,1.58c2.33,0.38 6.52,1.05 9.32,1.48c2.8,0.38 8.9,1.34 13.61,2.06c13.93,2.1 22.36,3.11 43.47,5.12c5.13,0.48 10.2,1.1 11.28,1.34c1.86,0.48 7.5,0.81 43.47,2.82c23.02,1.24 75.34,1.29 96.31,0.05c20.45,-1.2 39.04,-2.92 62.48,-5.84c3.45,-0.43 9.04,-1.1 12.44,-1.48c3.4,-0.43 9.18,-1.34 12.81,-2.01c3.63,-0.72 8.85,-1.67 11.65,-2.1c2.8,-0.48 6.8,-1.15 8.95,-1.48c2.14,-0.38 6.15,-1.05 8.9,-1.48c2.8,-0.48 7.87,-1.39 11.28,-2.06c3.4,-0.72 7.27,-1.43 8.53,-1.72c1.3,-0.19 3.59,-0.77 5.08,-1.15c1.49,-0.38 5.13,-1.29 8.15,-1.96c6.94,-1.63 11.74,-2.73 15.14,-3.59c1.49,-0.38 4.8,-1.15 7.36,-1.67c7.22,-1.53 16.77,-4.11 30.66,-8.27c2.38,-0.67 5.45,-1.48 6.85,-1.77c1.4,-0.24 2.7,-0.77 2.94,-1.15c0.23,-0.38 1.26,-0.72 2.28,-0.72c1.03,0 2.66,-0.29 3.63,-0.72c0.98,-0.38 3.87,-1.34 6.43,-2.06c8.39,-2.44 10.11,-2.97 11.46,-3.68c0.75,-0.38 2.05,-0.72 2.84,-0.72c0.84,0 1.72,-0.29 1.96,-0.67c0.23,-0.38 1.21,-0.91 2.19,-1.15c0.98,-0.19 6.8,-2.25 13,-4.54c6.2,-2.3 12.07,-4.35 13.05,-4.54c0.93,-0.24 1.96,-0.77 2.19,-1.15c0.23,-0.38 1.07,-0.67 1.91,-0.67c0.84,0 2.14,-0.33 2.89,-0.72c0.75,-0.43 3.08,-1.34 5.22,-2.1c2.14,-0.72 4.57,-1.58 5.45,-1.96c0.84,-0.33 3.96,-1.63 6.99,-2.82c2.98,-1.24 6.99,-2.92 8.9,-3.78c1.96,-0.86 4.29,-1.87 5.26,-2.25c3.35,-1.39 10.11,-4.3 13.61,-5.84c1.35,-0.62 5.64,-2.49 9.5,-4.07c7.32,-3.11 11.88,-5.26 29.12,-13.73c18.03,-8.9 31.96,-16.07 39.18,-20.19c3.87,-2.15 8.25,-4.54 9.74,-5.31c1.49,-0.72 2.89,-1.53 3.08,-1.82c0.47,-0.48 2.05,-1.43 8.76,-5.07c8.67,-4.74 15.66,-8.75 18.59,-10.62c1.63,-1.05 3.08,-1.87 3.26,-1.87c0.19,0 5.31,-3.2 11.32,-7.17c6.06,-3.97 11.14,-7.17 11.32,-7.17c0.19,0 3.35,-2.01 7.04,-4.45c6.76,-4.45 9.78,-4.93 7.5,-1.2c-3.4,5.6 -0.7,11.19 3.26,6.74c1.07,-1.15 1.96,-2.92 1.96,-3.83c0,-0.96 0.28,-2.06 0.65,-2.49c1.68,-2.01 4.33,-12.39 3.54,-13.73c-1.63,-2.58 -21.62,-3.87 -22.55,-1.43"
        fill="#000000" fill-rule="evenodd" id="path2" />

    </g>
    <text fill="#000000" font-family="Serif" font-size="36" id="svg_1" stroke-width="0" text-anchor="middle" x="133.12"
      font-weight="bold" y="561.75">Physicial note</text>
    <text fill="#000000" font-family="Serif" font-size="36" id="svg_2" stroke-width="0" text-anchor="middle"
      font-weight="bold" transform="matrix(1 0 0 1 0 0)" x="120.12" y="611.75">from EHR</text>
    <text fill="#000000" font-family="Serif" font-size="36" id="svg_3" stroke-width="0" text-anchor="middle" x="662.12"
      font-weight="bold" y="711.75">Insights</text>
    <text fill="#000000" font-family="Serif" font-size="36" id="svg_4" stroke-width="0" text-anchor="middle"
      font-weight="bold" transform="matrix(1 0 0 1 0 0)" x="667.12" y="31.75">Reports</text>
    <text fill="#000000" font-family="Serif" font-size="36" id="svg_5" stroke-width="0" text-anchor="middle"
      font-weight="bold" transform="matrix(1 0 0 1 0 0)" x="1237.12" y="117.75">Claim queries</text>
    <text fill="#000000" font-family="Serif" font-size="36" id="svg_6" stroke-width="0" text-anchor="middle"
      font-weight="bold" transform="matrix(1 0 0 1 0 0)" x="1245.12" y="618.75">Re-Claim submittions</text>
    <text fill="#000000" font-family="Serif" font-size="36" id="svg_7" stroke-width="0" style="cursor: move;"
      font-weight="bold" text-anchor="middle" transform="matrix(1 0 0 1 0 0)" x="1248.12" y="280.75">Automated
      billing</text>
    <text fill="#000000" font-family="Serif" font-size="36" id="svg_8" stroke-width="0" text-anchor="middle"
      font-weight="bold" transform="matrix(1 0 0 1 0 0)" x="1240.12" y="445.75">Assisted Billing</text>
    <text fill="#000000" font-family="Serif" font-size="36" id="svg_10" letter-spacing="0" stroke-width="0"
      font-weight="bold" text-anchor="middle" transform="matrix(1 0 0 1 0 0)" x="1792.12" y="590.75">Submited
      for</text>
    <text fill="#000000" font-family="Serif" font-size="36" id="svg_9" stroke-width="0" text-anchor="middle"
      font-weight="bold" transform="matrix(1 0 0 1 0 0)" x="1788.12" y="647.75">Claim processing</text>
  </g>
</svg>