<?xml version="1.0"?>
<svg width="197.549" height="197.549" xmlns="http://www.w3.org/2000/svg" xmlns:svg="http://www.w3.org/2000/svg">

  <g class="layer">
    <title>Layer 1</title>
    <path d="m66.52,36.65a70,70 0 0 0 -29.86,29.85l0.53,0.27a69.4,69.4 0 0 1 29.61,-29.59l-0.28,-0.53z" fill="#109A97"
      id="svg_1" stroke="#109A97" stroke-width="0" />
    <path d="m37.16,130.71l-0.53,0.28a70,70 0 0 0 29.62,29.77l0.28,-0.53a69.4,69.4 0 0 1 -29.37,-29.52z" fill="#109A97"
      id="svg_2" stroke="#109A97" stroke-width="0" />
    <path d="m160.39,130.71a69.4,69.4 0 0 1 -29.85,29.77l0.28,0.53a70,70 0 0 0 30.1,-30.02l-0.53,-0.28z" fill="#109A97"
      id="svg_3" stroke="#109A97" stroke-width="0" />
    <path d="m130.99,36.63l-0.28,0.53a69.4,69.4 0 0 1 29.66,29.64l0.53,-0.28a70,70 0 0 0 -29.91,-29.89z" fill="#109A97"
      id="svg_4" stroke="#109A97" stroke-width="0" />
    <path
      d="m98.47,0c-16.05,0 -29.07,13.02 -29.07,29.07c0,16.06 13.02,29.08 29.08,29.08c16.05,0 29.07,-13.02 29.07,-29.08c0,-16.05 -13.02,-29.07 -29.08,-29.07zm0,0.6c15.73,0 28.48,12.74 28.48,28.47s-12.75,28.48 -28.48,28.48c-15.72,0 -28.47,-12.75 -28.47,-28.48c0,-15.73 12.75,-28.47 28.47,-28.47z"
      fill="#109A97" id="svg_5" stroke="#109A97" stroke-width="0" />
    <path
      d="m168.47,69.7c-16.05,0 -29.07,13.02 -29.07,29.07c0,16.06 13.02,29.08 29.07,29.08c16.06,0 29.08,-13.02 29.08,-29.08c0,-16.05 -13.02,-29.07 -29.08,-29.07zm0,0.6c15.73,0 28.48,12.74 28.48,28.47c0,15.73 -12.75,28.48 -28.48,28.48c-15.72,0 -28.47,-12.75 -28.47,-28.48s12.75,-28.47 28.47,-28.47z"
      fill="#109A97" id="svg_6" stroke="#109A97" stroke-width="0" />
    <path
      d="m98.47,139.4c-16.05,0 -29.07,13.02 -29.07,29.07c0,16.06 13.02,29.08 29.07,29.08c16.06,0 29.08,-13.02 29.08,-29.08c0,-16.05 -13.02,-29.07 -29.08,-29.07zm0,0.6c15.73,0 28.48,12.75 28.48,28.47c0,15.73 -12.75,28.48 -28.48,28.48c-15.73,0 -28.47,-12.75 -28.47,-28.48c0,-15.72 12.75,-28.47 28.47,-28.47z"
      fill="#109A97" id="svg_7" stroke="#109A97" stroke-width="0" />
    <path
      d="m29.07,69.4c-16.05,0 -29.07,13.02 -29.07,29.07c0,16.06 13.02,29.08 29.07,29.08c16.06,0 29.08,-13.02 29.08,-29.08c0,-16.05 -13.02,-29.07 -29.08,-29.07zm0,0.6c15.73,0 28.48,12.75 28.48,28.47c0,15.73 -12.75,28.48 -28.48,28.48c-15.73,0 -28.47,-12.75 -28.47,-28.48c0,-15.72 12.74,-28.47 28.47,-28.47z"
      fill="#109A97" id="svg_8" stroke="#109A97" stroke-width="0" />
    <text fill="#000000" font-family="Helvetica" font-size="7" font-weight="bold" id="svg_13" stroke="#109A97"
      stroke-width="0" text-anchor="middle" x="98.52" xml:space="preserve" y="31.15">Medical Coding</text>
    <text fill="#000000" font-family="Helvetica" font-size="7" font-weight="bold" id="svg_14" stroke="#109A97"
      stroke-width="0" text-anchor="middle" x="169.16" xml:space="preserve" y="100.97">Billing</text>
    <text fill="#000000" font-family="Helvetica" font-size="7" font-weight="bold" id="svg_15" stroke="#109A97"
      stroke-width="0" text-anchor="middle" transform="matrix(1 0 0 1 0 0)" x="98.5" xml:space="preserve"
      y="172.8">Claims</text>
    <text fill="#000000" font-family="Helvetica" font-size="7" font-weight="bold" id="svg_16" stroke="#109A97"
      stroke-width="0" text-anchor="middle" transform="matrix(1 0 0 1 0 0)" x="29.33" xml:space="preserve"
      y="95.97">Analytics &amp;</text>
    <text fill="#000000" font-family="Helvetica" font-size="7" font-weight="bold" id="svg_17" stroke="#109A97"
      stroke-width="0" text-anchor="middle" transform="matrix(1 0 0 1 0 0)" x="28.5" xml:space="preserve"
      y="104.8">Insights</text>
  </g>
</svg>