<svg xmlns="http://www.w3.org/2000/svg" width="197.549" height="197.549"><g class="layer"><path fill="#109A97" d="M66.52 36.65A70 70 0 0 0 36.66 66.5l.53.27A69.4 69.4 0 0 1 66.8 37.18zm-29.36 94.06-.53.28a70 70 0 0 0 29.62 29.77l.28-.53a69.4 69.4 0 0 1-29.37-29.52m123.23 0a69.4 69.4 0 0 1-29.85 29.77l.28.53a70 70 0 0 0 30.1-30.02zm-29.4-94.08-.28.53a69.4 69.4 0 0 1 29.66 29.64l.53-.28a70 70 0 0 0-29.91-29.89M98.47 0C82.42 0 69.4 13.02 69.4 29.07c0 16.06 13.02 29.08 29.08 29.08 16.05 0 29.07-13.02 29.07-29.08C127.55 13.02 114.53 0 98.47 0m0 .6c15.73 0 28.48 12.74 28.48 28.47S114.2 57.55 98.47 57.55C82.75 57.55 70 44.8 70 29.07S82.75.6 98.47.6m70 69.1c-16.05 0-29.07 13.02-29.07 29.07 0 16.06 13.02 29.08 29.07 29.08 16.06 0 29.08-13.02 29.08-29.08 0-16.05-13.02-29.07-29.08-29.07m0 .6c15.73 0 28.48 12.74 28.48 28.47s-12.75 28.48-28.48 28.48c-15.72 0-28.47-12.75-28.47-28.48s12.75-28.47 28.47-28.47m-70 69.1c-16.05 0-29.07 13.02-29.07 29.07 0 16.06 13.02 29.08 29.07 29.08 16.06 0 29.08-13.02 29.08-29.08 0-16.05-13.02-29.07-29.08-29.07m0 .6c15.73 0 28.48 12.75 28.48 28.47 0 15.73-12.75 28.48-28.48 28.48S70 184.2 70 168.47C70 152.75 82.75 140 98.47 140m-69.4-70.6C13.02 69.4 0 82.42 0 98.47c0 16.06 13.02 29.08 29.07 29.08 16.06 0 29.08-13.02 29.08-29.08 0-16.05-13.02-29.07-29.08-29.07m0 .6c15.73 0 28.48 12.75 28.48 28.47 0 15.73-12.75 28.48-28.48 28.48S.6 114.2.6 98.47C.6 82.75 13.34 70 29.07 70"/><text xml:space="preserve" x="98.52" y="31.15" stroke="#109A97" stroke-width="0" font-family="Helvetica" font-size="7" font-weight="bold" text-anchor="middle">Medical Coding</text><text xml:space="preserve" x="169.16" y="100.97" stroke="#109A97" stroke-width="0" font-family="Helvetica" font-size="7" font-weight="bold" text-anchor="middle">Billing</text><text xml:space="preserve" x="98.5" y="172.8" stroke="#109A97" stroke-width="0" font-family="Helvetica" font-size="7" font-weight="bold" text-anchor="middle">Claims</text><text xml:space="preserve" x="29.33" y="95.97" stroke="#109A97" stroke-width="0" font-family="Helvetica" font-size="7" font-weight="bold" text-anchor="middle">Analytics &amp;</text><text xml:space="preserve" x="28.5" y="104.8" stroke="#109A97" stroke-width="0" font-family="Helvetica" font-size="7" font-weight="bold" text-anchor="middle">Insights</text></g></svg>