<svg xmlns="http://www.w3.org/2000/svg" xml:space="preserve" viewBox="0 0 122.88 88.99"><path fill="#0aa8a7" d="M85.33 16.83c12.99-9.83 31.92 1.63 31.92 13.63 0 7.75-2.97 10.79-7.57 14.03 23.2 12.41 12.7 39.86-7.54 44.49H31.45c-33.2 0-45.48-44.99-10.13-55.89C14.69 6.66 66.5-17.2 85.33 16.83M59.48 72.42l4.1-20.86 4.16 6.28c8.96-3.6 14-9.54 14.74-18.66 7.36 12.87 2.9 24.42-6.44 31.17l4.25 6.39zm6.33-45.46-4.1 20.86-4.16-6.28c-8.96 3.6-14 9.54-14.74 18.66-7.36-12.87-2.9-24.42 6.44-31.17L45 22.64z" class="st0"/></svg>