<svg xmlns="http://www.w3.org/2000/svg" xml:space="preserve" viewBox="0 0 503.876 503.876"><path fill="#0aa8a7" d="M469.361 71.689C437.29 36.008 399.335 17.157 359.6 17.157c-44.309 0-84.27 27.01-107.654 71.638-23.334-44.628-62.993-71.638-106.857-71.638-39.743 0-76.649 18.331-109.719 54.482-38.762 42.403-60.643 138.701 15.519 210.717 35.143 33.221 193.779 200.074 195.374 201.753a8.4 8.4 0 0 0 6.077 2.61h.008a8.4 8.4 0 0 0 6.068-2.594c1.603-1.679 160.667-168.163 195.458-201.837 74.702-72.326 53.4-168.422 15.487-210.599"/></svg>