<svg xmlns="http://www.w3.org/2000/svg" xml:space="preserve" viewBox="0 0 1000 1000"><path fill="#0aa8a7" d="M775.34 847.27h-550.4a125 125 0 0 1 84.83-54.12c54.9-8.48 133.39-24.9 140.16-50.05 1.91-7.11 1.49-14.37-.5-21.49h101.43c-1.99 7.12-2.43 14.38-.51 21.49 6.77 25.15 85.26 41.57 140.17 50.05a124.98 124.98 0 0 1 84.82 54.12M232.832 181.732v72.8h534.624v-72.8c0-16.5-13.5-30-30-30H262.832c-16.5 0-30 13.5-30 30m442.104 21.4c0-6.875 5.625-12.5 12.5-12.5h28c6.875 0 12.5 5.625 12.5 12.5s-5.625 12.5-12.5 12.5h-28c-6.875 0-12.5-5.625-12.5-12.5m-83.5 0c0-6.875 5.625-12.5 12.5-12.5h28c6.875 0 12.5 5.625 12.5 12.5s-5.625 12.5-12.5 12.5h-28c-6.875 0-12.5-5.625-12.5-12.5m-83.5 0c0-6.875 5.625-12.5 12.5-12.5h28c6.875 0 12.5 5.625 12.5 12.5s-5.625 12.5-12.5 12.5h-28c-6.875 0-12.5-5.625-12.5-12.5"/><path fill="#0aa8a7" d="M817.912 210.63h-25.457v44.038c-.044 8.244-.044 16.483 0 24.727v310.717c0 30.376-24.624 55-55 55H262.832c-30.376 0-55-24.624-55-55V279.395c.045-8.244.045-16.482 0-24.725v-44.04h-25.456c-16.568 0-30 13.431-30 30v425.976c0 16.568 13.432 30 30 30h635.537c16.568 0 30-13.432 30-30V240.63c-.001-16.568-13.433-30-30.001-30"/><g fill="#0aa8a7"><path d="M619.503 466.613h-15.807v25.705h15.807c3.623 0 6.666-1.228 9.138-3.684q3.706-3.683 3.706-9.25 0-5.238-3.706-9.005-3.707-3.765-9.138-3.766"/><path d="M232.83 279.53v310.58c0 16.54 13.46 30 30 30h474.63c16.54 0 30-13.46 30-30V279.53zm44.749 58.566h28c6.875 0 12.5 5.625 12.5 12.5s-5.625 12.5-12.5 12.5h-28c-6.875 0-12.5-5.625-12.5-12.5s5.625-12.5 12.5-12.5m51.029 197.291c4.881 4.881 4.881 12.796 0 17.678-4.882 4.881-12.796 4.881-17.678 0l-42.191-42.191c-4.881-4.881-4.881-12.796 0-17.678l42.191-42.19c4.881-4.882 12.796-4.882 17.678 0 4.881 4.881 4.881 12.796 0 17.678l-33.352 33.352zm124.795-14.827q-4.259 9.907-11.624 17.272-7.368 7.368-17.273 11.543-9.906 4.175-21.202 4.175-11.298 0-21.284-4.175-9.988-4.174-17.354-11.461-7.368-7.284-11.707-17.109-4.339-9.823-4.338-21.12 0-10.967 4.093-20.874 4.091-9.904 11.379-17.436 7.285-7.53 17.109-11.952 9.823-4.42 21.284-4.421 11.789.001 21.857 4.339 10.068 4.34 17.518 11.706 7.45 7.368 11.624 17.273 4.175 9.907 4.175 21.039-.002 11.297-4.257 21.201m117.223 0q-4.259 9.907-11.624 17.272-7.368 7.368-17.273 11.543-9.906 4.175-21.202 4.175-11.298 0-21.284-4.175-9.988-4.174-17.355-11.461-7.368-7.284-11.707-17.109-4.339-9.823-4.338-21.12 0-10.967 4.093-20.874 4.091-9.904 11.379-17.436 7.285-7.53 17.109-11.952 9.823-4.42 21.284-4.421 11.789.001 21.857 4.339 10.068 4.34 17.518 11.706 7.449 7.368 11.625 17.273 4.175 9.907 4.175 21.039 0 11.297-4.257 21.201m78.493-28.488q-2.546 5.813-6.981 10.233-4.436 4.422-10.35 6.958-5.914 2.54-12.484 2.538h-15.607v29.634q0 9.824-9.578 9.824-9.742 0-9.742-9.824v-82.68q-.001-11.46 11.624-11.461h23.413q6.547 0 12.443 2.538 5.895 2.538 10.315 6.958t6.958 10.314q2.537 5.896 2.537 12.443 0 6.715-2.548 12.525m82.428 18.802-42.191 42.191c-4.881 4.881-12.796 4.881-17.677 0s-4.882-12.796 0-17.678l33.352-33.352-33.352-33.352c-4.882-4.882-4.882-12.796 0-17.678s12.796-4.882 17.677 0l42.191 42.19c4.881 4.883 4.881 12.797 0 17.679m-8.839-147.778H359.579c-6.875 0-12.5-5.625-12.5-12.5s5.625-12.5 12.5-12.5h363.129c6.875 0 12.5 5.625 12.5 12.5s-5.625 12.5-12.5 12.5"/><path d="M544.758 474.636q-4.749-4.746-11.133-7.531-6.387-2.782-13.425-2.783-7.369.001-13.671 2.865-6.305 2.867-10.888 7.695-4.586 4.831-7.204 11.297a35.7 35.7 0 0 0-2.62 13.507q-.001 7.205 2.62 13.425 2.618 6.224 7.286 10.969c3.11 3.168 6.738 5.648 10.887 7.45q6.22 2.701 13.589 2.701 7.367 0 13.671-2.701 6.301-2.7 11.051-7.45 4.747-4.747 7.449-11.133 2.701-6.384 2.701-13.589-.001-7.203-2.783-13.589-2.783-6.384-7.53-11.133m-117.224 0q-4.749-4.746-11.133-7.531-6.387-2.782-13.425-2.783-7.369.001-13.671 2.865-6.305 2.867-10.888 7.695-4.586 4.831-7.204 11.297a35.7 35.7 0 0 0-2.62 13.507q-.001 7.205 2.62 13.425 2.619 6.224 7.286 10.969c3.111 3.168 6.738 5.648 10.887 7.45q6.222 2.701 13.589 2.701t13.671-2.701q6.3-2.7 11.051-7.45 4.748-4.747 7.449-11.133 2.701-6.384 2.701-13.589 0-7.203-2.784-13.589-2.782-6.384-7.529-11.133"/></g></svg>