<svg xmlns="http://www.w3.org/2000/svg" xml:space="preserve" viewBox="0 0 71.31 122.88"><path fill="#0aa8a7" d="M12.47 0h46.36c3.43 0 6.55 1.4 8.81 3.66s3.66 5.38 3.66 8.81v97.94c0 3.43-1.4 6.55-3.66 8.81a12.44 12.44 0 0 1-8.81 3.66H12.47c-3.43 0-6.55-1.4-8.81-3.66A12.44 12.44 0 0 1 0 110.41V12.47c0-3.43 1.4-6.55 3.66-8.81S9.04 0 12.47 0m16.46 113c-.83 0-1.5-.67-1.5-1.5s.67-1.5 1.5-1.5h13.72c.83 0 1.5.67 1.5 1.5s-.67 1.5-1.5 1.5zM27.65 7.16c1.31 0 2.38 1.07 2.38 2.38s-1.07 2.38-2.38 2.38-2.38-1.07-2.38-2.38 1.07-2.38 2.38-2.38m8 0c1.31 0 2.38 1.07 2.38 2.38s-1.07 2.38-2.38 2.38a2.38 2.38 0 1 1 0-4.76m8 0c1.31 0 2.38 1.07 2.38 2.38s-1.07 2.38-2.38 2.38a2.38 2.38 0 1 1 0-4.76M3 99.29h65.31V19.21H3zm65.31 3H3v8.12c0 2.6 1.07 4.97 2.78 6.69a9.44 9.44 0 0 0 6.69 2.78h46.36c2.6 0 4.97-1.07 6.69-2.78a9.44 9.44 0 0 0 2.78-6.69v-8.12zM3 16.21h65.31v-3.74c0-2.6-1.07-4.97-2.78-6.69A9.45 9.45 0 0 0 58.83 3H12.47C9.87 3 7.5 4.06 5.78 5.78A9.44 9.44 0 0 0 3 12.47z"/></svg>