<svg xmlns="http://www.w3.org/2000/svg" xml:space="preserve" viewBox="0 0 122.88 106.3"><path fill="#0aa8a7" d="m58.15 52.98 28.6-18.22c.2-.15.48-.12.65.06l2.76 2.94c.17.18.18.47.02.66L68.51 63.6c-3.08 3.31-6.37 3.96-9.02 3.1a7.44 7.44 0 0 1-3.35-2.25 7.7 7.7 0 0 1-1.74-3.61c-.49-2.67.49-5.66 3.73-7.85zm-38.82 53.19c-3.05-2.87-5.8-6.05-8.21-9.48-2.39-3.4-4.44-7.06-6.11-10.91a61.7 61.7 0 0 1-3.75-11.9C.44 69.86 0 65.7 0 61.44c0-8.32 1.66-16.25 4.65-23.49A61.5 61.5 0 0 1 18 18 61.5 61.5 0 0 1 37.95 4.66C45.19 1.66 53.12 0 61.44 0c8.3 0 16.21 1.66 23.43 4.66 7.52 3.12 14.28 7.7 19.95 13.37A61.8 61.8 0 0 1 118.2 38a60.9 60.9 0 0 1 4.68 23.44c0 4.05-.4 8.01-1.16 11.85a61 61 0 0 1-9.1 21.95 63 63 0 0 1-7.6 9.3c-.19.19-.51.19-.7 0l-3.07-3.06a.45.45 0 0 1-.17-.11l-8.56-8.56a.5.5 0 0 1 0-.7l4.49-4.49c.19-.19.51-.19.7 0l6.61 6.61a55 55 0 0 0 3.85-5.7c1.25-2.12 2.35-4.34 3.3-6.63a53 53 0 0 0 2.97-9.71c.64-3.12 1-6.35 1.07-9.64h-9.11c-.27 0-.5-.22-.5-.5V55.7c0-.27.22-.5.5-.5h8.76a53.7 53.7 0 0 0-4.72-16.58 54.6 54.6 0 0 0-9.82-14.37l-5.86 5.86c-.19.19-.51.19-.7 0l-4.49-4.49a.5.5 0 0 1 0-.7l5.65-5.65a54.2 54.2 0 0 0-14.87-8.5A53.6 53.6 0 0 0 63.6 7.39v8.03c0 .27-.22.5-.5.5h-6.36c-.27 0-.5-.22-.5-.5V7.59c-5.83.55-11.4 2.04-16.54 4.29a54.3 54.3 0 0 0-14.42 9.3l5.87 5.87c.19.19.19.51 0 .7l-4.49 4.49c-.19.19-.51.19-.7 0l-5.8-5.8c-3.73 4.4-6.78 9.41-8.96 14.86-2.1 5.3-3.41 10.99-3.76 16.93h9.03c.27 0 .5.22.5.5v6.36c0 .27-.22.5-.5.5H7.5c.22 2.94.68 5.8 1.35 8.58.72 3.01 1.7 5.92 2.91 8.72a54 54 0 0 0 3.64 6.98c1.29 2.09 2.72 4.09 4.28 5.97l7.24-7.24c.19-.19.51-.19.7 0l4.49 4.49c.19.19.19.51 0 .7-4.14 4.14-8.09 8.11-12.09 12.36a.48.48 0 0 1-.69.02"/></svg>