<svg xmlns="http://www.w3.org/2000/svg" data-name="Layer 1" viewBox="0 0 250 190.11"><path fill="#0aa8a7" d="M213.91 50.88A50.28 50.28 0 1 0 250 99.06a49.84 49.84 0 0 0-36.09-48.18m6.77 64.83a6.06 6.06 0 0 1-8.52 1l-18.52-14.65v-28a6.06 6.06 0 0 1 6.06-6.07 6.07 6.07 0 0 1 6.07 6.07v22.15l13.92 11a6.07 6.07 0 0 1 .99 8.5"/><circle cx="86.92" cy="85.57" r="55.62" fill="#0aa8a7" transform="matrix(.96 -.26 .26 .96 -19.43 -4.1)"/><path fill="#0aa8a7" d="M156.66 146.63a68.1 68.1 0 0 0-43.92-20.15 290 290 0 0 0-52.31.07 68.2 68.2 0 0 0-43.25 20.08 91.6 91.6 0 0 0-15.26 20.6c-5.7 10.27 2 22.89 13.73 22.89h142.54c11.75 0 19.42-12.62 13.72-22.89a91.3 91.3 0 0 0-15.25-20.6"/></svg>